Wide-Bold.sfdir
StartChar: exclam
Encoding: 33 33 63
Width: 1000
Flags: MW
LayerCount: 2
Fore
SplineSet
434 695 m 1xe0
 566 695 l 1xe0
 552 217 l 1
 448 217 l 1xd0
 436 652 l 5
 434 695 l 1xe0
EndSplineSet
Refer: 76 46 N 1 0 0 1 348 0 2
EndChar
StartChar: quotedbl
Encoding: 34 34 64
Width: 1000
Flags: MW
LayerCount: 2
Fore
SplineSet
340 695 m 1
 477 695 l 1
 445 397 l 1
 445 397 l 1
 372 397 l 1
 340 695 l 1
523 695 m 1
 660 695 l 1
 628 397 l 1
 555 397 l 1
 555 397 l 1
 523 695 l 1
EndSplineSet
EndChar
StartChar: numbersign
Encoding: 35 35 65
Width: 1000
Flags: MW
LayerCount: 2
Fore
SplineSet
104 145 m 0
 104 161 110 169 118 174 c 0
 129 181 144 181 158 181 c 2
 318 181 l 1
 366 346 l 1
 154 346 l 2
 135 346 121 349 112 357 c 0
 106 363 104 370 104 382 c 0
 104 395 108 404 114 409 c 0
 128 420 151 419 158 419 c 2
 390 419 l 1
 464 662 l 2
 467 669 469 675 472 679 c 0
 480 692 488 694 500 694 c 0
 520 694 536 676 536 659 c 0
 536 656 534 646 530 632 c 2
 466 419 l 1
 628 419 l 1
 702 660 l 2
 706 671 710 679 714 684 c 0
 721 692 727 694 738 694 c 0
 758 694 774 676 774 659 c 0
 774 655 769 641 764 622 c 2
 704 419 l 1
 848 419 l 2
 861 419 874 418 884 411 c 0
 892 406 896 396 896 382 c 0
 896 368 891 359 884 354 c 0
 872 346 855 346 848 346 c 2
 682 346 l 1
 632 181 l 1
 844 181 l 2
 862 181 877 179 886 172 c 0
 893 167 896 158 896 145 c 0
 896 132 893 123 886 118 c 0
 874 109 855 109 842 109 c 2
 610 109 l 1
 538 -126 l 2
 531 -144 526 -155 520 -160 c 0
 514 -165 509 -166 500 -166 c 0
 478 -166 464 -148 464 -130 c 0
 464 -127 464 -122 470 -103 c 2
 534 109 l 1
 372 109 l 1
 298 -132 l 2
 293 -144 290 -151 286 -156 c 0
 279 -164 272 -166 262 -166 c 0
 239 -166 226 -148 226 -130 c 0
 226 -127 227 -123 232 -106 c 2
 296 109 l 1
 154 109 l 2
 139 109 129 111 120 115 c 0
 110 120 104 129 104 145 c 0
394 181 m 1
 556 181 l 1
 606 346 l 1
 442 346 l 1
 394 181 l 1
EndSplineSet
EndChar
StartChar: dollar
Encoding: 36 36 66
Width: 1000
Flags: W
LayerCount: 2
Fore
SplineSet
230 58 m 1
 249 168 l 1
 297 131 332 105 455 91 c 1
 455 294 l 1
 451 295 447 295 443 296 c 0
 284 328 242 424 242 502 c 0
 242 664 347 696 455 704 c 1
 455 750 l 1
 563 750 l 1
 563 704 l 1
 655 700 701 681 751 650 c 1
 733 545 l 1
 701 567 662 597 563 603 c 1
 563 429 l 1
 723 399 770 294 770 206 c 0
 770 92 722 3 563 -9 c 1
 563 -56 l 1
 455 -56 l 1
 455 -10 l 1
 451 -7 335 -11 230 58 c 1
365 525 m 0
 365 467 443 450 455 446 c 1
 455 602 l 1
 454 602 l 1
 438 599 365 587 365 525 c 0
563 94 m 1
 584 98 653 111 653 183 c 0
 653 239 598 266 564 276 c 1
 563 246 l 1
 563 94 l 1
EndSplineSet
EndChar
StartChar: percent
Encoding: 37 37 67
Width: 1000
Flags: MW
LayerCount: 2
Fore
SplineSet
47 549 m 0
 47 609 59 667 98 705 c 0
 126 733 168 750 230 750 c 0
 290 750 331 732 358 705 c 0
 398 665 409 603 409 547 c 0
 409 488 397 435 365 399 c 0
 337 367 292 347 228 347 c 0
 173 347 127 362 95 395 c 0
 64 427 47 477 47 549 c 0
167 541 m 2
 168 509 167 470 181 445 c 0
 190 430 204 420 228 420 c 0
 250 420 265 431 275 447 c 0
 293 477 294 523 294 549 c 0
 294 594 289 641 265 663 c 0
 256 672 244 677 228 677 c 0
 208 677 194 670 185 659 c 0
 167 637 168 598 167 565 c 2
 167 541 l 2
188 -14 m 0
 188 1 196 12 203 21 c 2
 733 723 l 2
 736 727 749 750 774 750 c 0
 799 750 815 729 815 708 c 0
 815 696 810 687 802 677 c 2
 268 -32 l 2
 265 -36 252 -55 229 -55 c 0
 206 -55 188 -37 188 -14 c 0
592 147 m 0
 592 208 605 253 628 285 c 0
 660 329 711 347 775 347 c 0
 834 347 874 330 901 305 c 0
 940 268 951 213 953 162 c 2
 953 128 l 2
 951 78 939 25 903 -11 c 0
 876 -38 835 -56 773 -56 c 0
 714 -56 666 -40 634 -1 c 0
 607 32 592 80 592 147 c 0
712 138 m 2
 713 103 712 61 729 37 c 0
 738 25 752 17 773 17 c 0
 794 17 808 27 818 41 c 0
 838 70 839 119 839 146 c 0
 839 187 834 229 816 253 c 0
 806 266 793 274 773 274 c 0
 751 274 737 266 728 253 c 0
 712 231 713 194 712 162 c 2
 712 138 l 2
EndSplineSet
EndChar
StartChar: ampersand
Encoding: 38 38 68
Width: 1000
Flags: MW
LayerCount: 2
Fore
SplineSet
138 148 m 0xe8
 138 243 217 284 286 332 c 1
 269 377 254 426 254 489 c 0xd8
 254 611 326 717 432 717 c 0
 525 717 604 643 604 553 c 0
 604 515 584 479 552 445 c 0
 516 406 466 370 418 336 c 1
 470 248 549 175 558 163 c 1
 560 163 l 1
 606 207 642 249 658 281 c 0
 679 324 707 376 726 444 c 1
 826 417 l 1
 810 357 785 295 748 235 c 0
 720 189 684 144 640 102 c 1
 656 94 673 88 690 84 c 0
 704 81 718 78 736 78 c 0
 761 78 784 81 804 85 c 0
 825 89 844 95 862 101 c 1
 862 -5 l 1
 844 -10 826 -14 808 -17 c 0
 785 -21 761 -23 738 -23 c 0
 694 -23 656 -14 626 -4 c 0
 586 10 571 18 546 33 c 9
 546 33 l 17
 476 -9 391 -22 340 -22 c 0
 222 -22 138 55 138 148 c 0xe8
276 174 m 0xe8
 276 134 288 78 342 78 c 0
 385 78 429 91 456 100 c 1
 410 145 364 194 320 267 c 1
 299 252 276 231 276 174 c 0xe8
358 546 m 0
 358 491 374 436 386 403 c 1
 409 420 443 444 466 479 c 0
 480 500 490 524 490 552 c 0
 490 584 478 644 430 644 c 0xd8
 402 644 358 619 358 546 c 0
EndSplineSet
EndChar
StartChar: quotesingle
Encoding: 39 39 69
Width: 1000
Flags: MW
LayerCount: 2
Fore
SplineSet
432 695 m 1
 568 695 l 1
 548 509 l 1
 536 397 l 1
 536 397 l 1
 464 397 l 1
 464 397 l 1
 432 695 l 1
EndSplineSet
EndChar
StartChar: parenleft
Encoding: 40 40 70
Width: 1000
Flags: MW
LayerCount: 2
Fore
SplineSet
660 263 m 0
 660 458 722 633 868 750 c 1
 940 750 l 1
 918 723 891 688 866 637 c 0
 829 561 797 447 797 264 c 0
 797 -98 927 -196 940 -223 c 1
 868 -223 l 1
 722 -105 660 72 660 263 c 0
EndSplineSet
EndChar
StartChar: asterisk
Encoding: 42 42 72
Width: 1000
Flags: MW
LayerCount: 2
Fore
SplineSet
200 129 m 0
 200 153 218 170 232 174 c 2
 466 264 l 1
 466 264 l 1
 343 305 199 362 199 407 c 0
 199 439 225 472 259 472 c 0
 287 472 401 368 483 294 c 1
 473 340 443 541 443 562 c 0
 443 594 475 610 500 610 c 0
 527 610 559 592 559 560 c 0
 559 543 539 399 517 294 c 1
 613 383 719 465 741 465 c 0
 775 465 801 431 801 399 c 0
 801 377 796 363 768 354 c 2
 534 264 l 1
 534 264 l 1
 656 223 801 167 801 121 c 0
 801 89 775 57 741 57 c 0
 713 57 599 161 517 234 c 1
 527 191 558 -24 558 -32 c 0
 558 -64 527 -82 500 -82 c 0
 472 -82 442 -61 442 -32 c 0
 442 -14 464 140 483 234 c 1
 388 145 281 65 260 65 c 0
 225 65 200 97 200 129 c 0
EndSplineSet
EndChar
StartChar: plus
Encoding: 43 43 73
Width: 1000
Flags: MW
LayerCount: 2
Fore
SplineSet
134 250 m 0
 134 284 168 286 180 286 c 2
 464 286 l 1
 464 565 l 2
 464 588 468 616 500 616 c 4
 535 616 536 576 536 565 c 6
 536 286 l 1
 814 286 l 2
 840 286 866 278 866 250 c 0
 866 216 831 214 818 214 c 2
 536 214 l 1
 536 -65 l 2
 536 -91 528 -116 500 -116 c 0
 464 -116 464 -71 464 -65 c 2
 464 214 l 1
 184 214 l 2
 158 214 134 222 134 250 c 0
EndSplineSet
EndChar
StartChar: comma
Encoding: 44 44 74
Width: 1000
Flags: MW
LayerCount: 2
Fore
SplineSet
86 0 m 1
 86 131 l 1
 217 131 l 1
 217 19 l 25
 217 19 217 6 216 2 c 1
 214 -11 152 -111 152 -111 c 5
 86 -111 l 1
 126 0 l 1
 86 0 l 1
EndSplineSet
EndChar
StartChar: hyphen
Encoding: 45 45 75
Width: 1000
Flags: MW
LayerCount: 2
Fore
SplineSet
354 200 m 1
 354 273 l 1
 646 273 l 1
 646 200 l 1
 354 200 l 1
EndSplineSet
EndChar
StartChar: period
Encoding: 46 46 76
Width: 1000
Flags: MW
LayerCount: 2
Fore
SplineSet
86 0 m 1
 86 131 l 1
 217 131 l 1
 217 0 l 1
 86 0 l 1
EndSplineSet
EndChar
StartChar: slash
Encoding: 47 47 77
Width: 1000
Flags: W
LayerCount: 2
Fore
SplineSet
8 -186 m 0
 8 -175 13 -164 21 -156 c 2
 908 704 l 2
 919 714 932 750 961 750 c 0
 980 750 992 736 992 714 c 0
 992 704 985 691 980 687 c 2
 96 -173 l 2
 87 -182 74 -201 63 -212 c 0
 58 -217 52 -221 44 -222 c 0
 42 -222 41 -222 39 -222 c 0
 22 -222 8 -208 8 -186 c 0
EndSplineSet
EndChar
StartChar: zero
Encoding: 48 48 0
Width: 1000
Flags: W
LayerCount: 2
Fore
SplineSet
212 344 m 0
 212 356 212 368 212 380 c 0
 214 509 230 664 382 706 c 0
 416 713 455 717 500 717 c 0
 586 717 675 700 717 654 c 0
 788 576 788 431 788 362 c 2
 788 352 l 2
 788 213 786 32 616 -12 c 4
 582 -18 543 -22 498 -22 c 0
 222 -22 212 180 212 344 c 0
358 352 m 0
 358 155 368 91 446 60 c 0
 461 55 479 50 500 50 c 0
 509 50 548 51 582 76 c 0
 644 120 639 200 642 357 c 0
 642 368 644 380 644 393 c 0
 644 468 638 559 611 595 c 0
 590 623 548 644 500 644 c 0
 359 644 358 516 358 396 c 0
 358 381 358 366 358 352 c 0
EndSplineSet
EndChar
StartChar: one
Encoding: 49 49 1
Width: 1000
Flags: W
LayerCount: 2
Fore
SplineSet
296 575 m 1
 296 648 l 1
 412 648 495 670 551 717 c 1
 586 717 l 1
 586 73 l 1
 704 73 l 1
 704 0 l 1
 311 0 l 1
 311 73 l 1
 448 73 l 1
 448 591 l 1
 392 579 344 575 296 575 c 1
EndSplineSet
EndChar
StartChar: three
Encoding: 51 51 3
Width: 1000
Flags: W
LayerCount: 2
Fore
SplineSet
224 58 m 1
 240 151 l 1
 272 124 306 102 348 88 c 0
 388 79 432 73 482 73 c 0
 534 73 569 83 591 99 c 0
 625 124 628 162 628 197 c 2
 628 216 l 2xe8
 628 261 616 289 596 307 c 0
 556 345 488 337 460 339 c 2
 370 339 l 1
 370 411 l 1
 424 414 444 414 462 417 c 0
 528 426 594 470 594 547 c 0
 594 572 589 596 567 611 c 0
 551 622 527 628 488 628 c 0xf0
 442 628 404 621 372 610 c 0
 340 599 324 584 312 571 c 0
 301 559 295 548 292 543 c 1
 238 619 l 1
 265 652 299 680 342 698 c 0
 385 710 435 717 492 717 c 0
 609 717 665 698 696 670 c 0
 737 634 746 583 746 544 c 0xf0
 746 501 731 468 712 443 c 0
 687 409 653 389 634 378 c 1
 654 373 705 361 740 319 c 0
 762 293 776 256 776 203 c 0
 776 133 758 62 696 19 c 4
 660 -6 596 -22 490 -22 c 0
 430 -22 376 -16 332 -5 c 0
 292 9 257 30 224 58 c 1
EndSplineSet
EndChar
StartChar: four
Encoding: 52 52 4
Width: 1000
Flags: W
LayerCount: 2
Fore
SplineSet
216 152 m 1
 216 247 l 1
 216 247 l 1
 521 695 l 1
 694 695 l 1
 694 247 l 1
 784 247 l 1
 784 152 l 1
 694 152 l 1
 694 0 l 1
 567 0 l 1
 567 152 l 1
 216 152 l 1
321 247 m 1
 575 247 l 1
 575 592 l 1
 548 528 492 466 321 247 c 1
EndSplineSet
EndChar
StartChar: six
Encoding: 54 54 6
Width: 1000
Flags: W
LayerCount: 2
Fore
SplineSet
227 342 m 0
 227 501 259 566 287 608 c 0
 336 682 444 717 591 717 c 0
 643 717 666 712 702 696 c 1
 702 604 l 1
 671 619 648 628 596 628 c 0
 488 628 434 590 414 568 c 0
 388 539 368 489 368 391 c 1
 399 441 459 493 570 493 c 0
 675 493 709 455 731 424 c 0
 769 368 773 314 773 250 c 2
 773 244 l 2
 773 189 772 127 737 71 c 0
 678 -20 574 -22 504 -22 c 0
 390 -22 332 5 298 46 c 0
 230 127 227 262 227 342 c 0
369 253 m 0
 369 245 369 237 369 229 c 4
 371 148 388 72 508 72 c 0
 604 72 628 117 632 170 c 0
 634 193 631 217 633 240 c 2
 633 274 l 2
 631 313 632 351 616 378 c 0
 601 403 572 420 512 420 c 0
 414 420 378 356 370 288 c 0
 368 276 369 265 369 253 c 0
EndSplineSet
EndChar
StartChar: seven
Encoding: 55 55 7
Width: 1000
Flags: W
LayerCount: 2
Fore
SplineSet
216 587 m 1
 216 695 l 1
 784 695 l 1
 784 594 l 1
 626 422 456 200 456 -11 c 1
 314 -11 l 1
 314 214 476 428 680 588 c 1
 216 587 l 1
EndSplineSet
EndChar
StartChar: eight
Encoding: 56 56 8
Width: 1000
Flags: W
LayerCount: 2
Fore
SplineSet
226 201 m 0xf2
 226 287 263 351 350 375 c 1
 328 384 241 406 241 523 c 0
 241 620 284 717 500 717 c 2
 501 717 l 2
 717 717 759 620 759 522 c 0xec
 759 394 651 379 650 375 c 1
 737 351 774 287 774 201 c 0
 774 89 728 -22 500 -22 c 0
 272 -22 226 90 226 201 c 0xf2
366 190 m 2
 368 152 369 116 401 94 c 0
 421 81 450 73 498 73 c 0
 540 73 570 80 590 90 c 4
 638 116 633 166 635 198 c 2
 635 219 l 2xf2
 633 260 627 295 599 316 c 0
 579 331 548 339 500 339 c 0
 452 339 422 330 402 316 c 0
 363 287 368 239 366 213 c 2
 366 190 l 2
371 511 m 2xec
 371 475 379 449 401 432 c 0
 421 418 452 411 498 411 c 0
 548 411 577 419 597 432 c 0
 625 452 629 482 629 512 c 2
 629 530 l 2
 629 562 622 586 606 602 c 0
 588 620 555 628 501 628 c 0
 453 628 424 621 404 610 c 0
 370 590 373 557 371 529 c 2
 371 511 l 2xec
EndSplineSet
EndChar
StartChar: nine
Encoding: 57 57 9
Width: 1000
Flags: W
LayerCount: 2
Fore
SplineSet
227 443 m 0
 227 513 227 573 270 632 c 0
 306 682 353 717 503 717 c 0
 602 717 660 695 693 662 c 0
 770 585 773 444 773 359 c 0
 773 255 764 124 682 45 c 0
 632 -3 527 -22 428 -22 c 0
 346 -22 306 -5 261 26 c 1
 309 110 l 1
 339 87 362 73 428 73 c 0
 500 73 562 96 592 131 c 0
 614 159 632 213 632 296 c 2
 632 305 l 1
 608 264 552 202 430 202 c 0
 325 202 289 241 268 273 c 0
 231 328 227 381 227 443 c 0
367 450 m 2
 370 335 376 318 400 298 c 0
 422 281 455 275 488 275 c 0
 524 275 569 284 599 324 c 4
 619 350 632 389 632 448 c 0
 632 525 630 628 500 628 c 0
 466 628 439 623 421 614 c 0
 363 586 371 522 367 482 c 2
 367 450 l 2
EndSplineSet
EndChar
StartChar: less
Encoding: 60 60 80
Width: 1000
Flags: MW
LayerCount: 2
Fore
SplineSet
256 263 m 1
 258 277 257 282 284 304 c 2
 677 611 l 2
 683 616 694 624 708 624 c 0
 726 624 744 610 744 589 c 0
 744 570 732 561 721 553 c 2
 351 263 l 1
 372 249 391 233 411 218 c 2
 721 -25 l 2
 729 -31 744 -42 744 -61 c 0
 744 -83 726 -97 708 -97 c 0
 696 -97 688 -92 678 -84 c 2
 285 223 l 2
 251 249 259 255 256 263 c 1
EndSplineSet
EndChar
StartChar: equal
Encoding: 61 61 81
Width: 1000
Flags: MW
LayerCount: 2
Fore
SplineSet
134 135 m 0
 134 153 149 168 166 171 c 0
 174 172 183 172 192 172 c 2
 820 172 l 2
 861 172 866 144 866 135 c 0
 866 121 858 99 818 99 c 2
 182 99 l 2
 141 99 134 121 134 135 c 0
134 365 m 0
 134 378 141 401 180 401 c 2
 820 401 l 2
 861 401 866 373 866 364 c 0
 866 350 858 328 818 328 c 2
 182 328 l 2
 141 328 134 350 134 365 c 0
EndSplineSet
EndChar
StartChar: greater
Encoding: 62 62 82
Width: 1000
Flags: MW
LayerCount: 2
Fore
SplineSet
256 -61 m 0
 256 -43 268 -34 279 -25 c 2
 649 264 l 1
 629 278 609 294 590 310 c 2
 279 552 l 2
 264 565 256 574 256 589 c 0
 256 610 274 624 293 624 c 0
 305 624 312 619 322 611 c 2
 716 304 l 2
 749 278 741 272 744 264 c 1
 743 251 744 245 716 224 c 2
 323 -84 l 2
 313 -91 305 -97 293 -97 c 0
 274 -97 256 -83 256 -61 c 0
EndSplineSet
EndChar
StartChar: question
Encoding: 63 63 83
Width: 1000
Flags: W
LayerCount: 2
Fore
SplineSet
271 657 m 1
 321 685 377 704 455 706 c 2
 467 706 l 2xd8
 747 706 729 644 729 557 c 0
 729 499 676 458 657 449 c 0
 553 401 540 284 540 250 c 2
 540 217 l 1
 435 217 l 1
 435 249 l 2
 435 410 507 480 573 511 c 0
 610 528 617 552 617 562 c 0
 617 621 536 633 463 633 c 0
 387 633 340 602 306 562 c 1
 271 657 l 1
EndSplineSet
Refer: 76 46 N 1 0 0 1 336 0 2
EndChar
StartChar: at
Encoding: 64 64 84
Width: 1000
Flags: W
LayerCount: 2
Fore
SplineSet
102 346 m 0
 102 531 175 706 588 706 c 0
 872 706 898 559 898 360 c 0
 898 302 895 221 836 167 c 0
 796 130 721 118 640 118 c 0
 372 118 352 239 352 351 c 0
 352 443 428 585 636 577 c 6
 690 575 l 1
 736 571 l 1
 694 625 628 633 583 633 c 0
 439 633 222 595 222 347 c 0
 222 200 297 61 594 61 c 0
 718 61 792 87 807 89 c 2
 822 90 l 1
 898 90 l 1
 844 36 750 -11 585 -11 c 0
 312 -11 102 60 102 346 c 0
499 339 m 0
 501 210 581 190 637 190 c 0
 676 190 730 203 757 249 c 0
 775 282 777 314 777 354 c 0
 777 483 695 504 639 504 c 0
 591 504 544 487 520 446 c 0
 500 412 499 380 499 339 c 0
EndSplineSet
EndChar
StartChar: A
Encoding: 65 65 10
Width: 1000
Flags: W
LayerCount: 2
Fore
SplineSet
126 0 m 1
 390 695 l 1
 614 695 l 1
 874 0 l 1
 721 0 l 1
 657 150 l 1
 325 150 l 1
 262 0 l 1
 126 0 l 1
362 237 m 1
 621 237 l 1
 507 521 l 1
 492 569 l 1
 476 512 448 457 362 237 c 1
EndSplineSet
EndChar
StartChar: B
Encoding: 66 66 11
Width: 1000
Flags: W
LayerCount: 2
Fore
SplineSet
180 0 m 1
 180 695 l 1
 455 695 l 2
 541 695 631 695 698 660 c 0
 775 619 784 547 784 514 c 0xf8
 784 394 660 369 635 363 c 1
 688 356 814 329 820 193 c 0xf4
 820 115 782 55 711 25 c 0
 680 12 642 6 602 3 c 0
 564 0 525 0 488 0 c 2
 180 0 l 1
322 87 m 1
 477 87 l 2
 559 87 617 95 653 130 c 0
 672 148 681 173 681 197 c 0xf4
 681 244 654 279 616 299 c 0
 585 314 550 320 515 323 c 0
 496 324 475 325 456 325 c 2
 323 325 l 25
 322 290 l 17
 322 87 l 1
322 398 m 1
 440 398 l 2
 518 398 586 405 622 447 c 0
 636 462 647 485 647 511 c 0xf8
 647 550 617 608 468 608 c 2
 323 608 l 25
 322 576 l 17
 322 398 l 1
EndSplineSet
EndChar
StartChar: C
Encoding: 67 67 12
Width: 1000
Flags: W
LayerCount: 2
Fore
SplineSet
175 346 m 0
 175 643 355 717 591 717 c 0
 688 717 745 705 813 682 c 1
 790 551 l 1
 753 577 707 616 588 616 c 0
 384 616 323 497 323 349 c 0
 323 203 376 78 591 78 c 0
 713 78 745 98 816 144 c 1
 825 33 l 1
 740 -13 698 -23 588 -23 c 0
 348 -23 175 59 175 346 c 0
EndSplineSet
EndChar
StartChar: D
Encoding: 68 68 13
Width: 1000
Flags: W
LayerCount: 2
Fore
SplineSet
144 0 m 1
 144 695 l 1
 463 695 l 2
 543 695 619 687 684 664 c 0
 788 621 856 528 856 340 c 0
 856 89 722 19 556 4 c 0
 526 1 495 0 465 0 c 2
 144 0 l 1
289 87 m 1
 413 87 l 2
 503 87 608 90 667 166 c 0
 703 212 710 267 711 320 c 0
 711 381 711 431 691 482 c 0
 671 533 635 564 594 582 c 0
 539 606 474 608 424 608 c 2
 289 608 l 1
 289 87 l 1
EndSplineSet
EndChar
StartChar: E
Encoding: 69 69 14
Width: 1000
Flags: W
LayerCount: 2
Fore
SplineSet
224 0 m 1
 224 692 l 1x6c
 761 692 l 1
 761 587 l 1x34
 372 590 l 1
 372 407 l 1
 730 407 l 1
 730 312 l 1
 372 312 l 1
 372 107 l 1xac
 776 111 l 1
 776 0 l 1x64
 224 0 l 1
EndSplineSet
EndChar
StartChar: F
Encoding: 70 70 15
Width: 1000
Flags: W
LayerCount: 2
Fore
SplineSet
242 0 m 1
 242 692 l 1xd8
 758 692 l 1
 758 587 l 1xe8
 390 590 l 1
 390 394 l 1xd8
 712 394 l 1
 712 299 l 1
 390 299 l 1
 390 0 l 1
 242 0 l 1
EndSplineSet
EndChar
StartChar: G
Encoding: 71 71 16
Width: 1000
Flags: W
LayerCount: 2
Fore
SplineSet
169 348 m 0
 169 575 273 717 580 717 c 0
 687 717 745 703 821 668 c 1
 798 537 l 1
 767 562 716 617 581 617 c 0
 365 617 317 483 317 348 c 0
 317 205 370 78 584 78 c 0
 639 78 683 87 694 88 c 1
 694 233 l 1
 579 233 l 1
 579 328 l 1
 831 328 l 1
 831 26 l 1
 766 -1 691 -22 579 -22 c 0
 242 -22 169 156 169 348 c 0
EndSplineSet
EndChar
StartChar: H
Encoding: 72 72 17
Width: 1000
Flags: W
LayerCount: 2
Fore
SplineSet
163 0 m 1
 163 695 l 1
 311 695 l 1
 311 409 l 1
 689 409 l 1
 689 695 l 1
 837 695 l 1
 837 0 l 1
 689 0 l 1
 689 314 l 1
 311 314 l 1
 311 0 l 1
 163 0 l 1
EndSplineSet
EndChar
StartChar: I
Encoding: 73 73 18
Width: 1000
Flags: W
LayerCount: 2
Fore
SplineSet
426 0 m 1
 426 695 l 1
 574 695 l 1
 574 0 l 1
 426 0 l 1
EndSplineSet
EndChar
StartChar: J
Encoding: 74 74 19
Width: 1000
Flags: W
LayerCount: 2
Fore
SplineSet
297 19 m 1
 318 140 l 1
 332 121 365 75 439 75 c 0
 551 75 558 130 558 152 c 2
 558 695 l 1
 703 695 l 1
 703 155 l 2
 703 13 600 -22 499 -22 c 0
 432 -22 366 -12 297 19 c 1
EndSplineSet
EndChar
StartChar: K
Encoding: 75 75 20
Width: 1000
Flags: W
LayerCount: 2
Fore
SplineSet
152 0 m 1
 152 695 l 1
 282 695 l 1
 282 376 l 1
 668 695 l 1
 832 695 l 1
 526 419 l 1
 526 418 l 1
 848 0 l 1
 670 0 l 1
 420 331 l 1
 282 218 l 1
 282 0 l 1
 152 0 l 1
EndSplineSet
EndChar
StartChar: L
Encoding: 76 76 21
Width: 1000
Flags: W
LayerCount: 2
Fore
SplineSet
261 0 m 1x70
 261 695 l 1
 409 695 l 1
 409 101 l 1xb0
 739 105 l 1
 739 0 l 1x70
 261 0 l 1x70
EndSplineSet
EndChar
StartChar: M
Encoding: 77 77 22
Width: 1000
Flags: MW
LayerCount: 2
Fore
SplineSet
102 0 m 1
 102 695 l 1
 284 695 l 1
 432 327 l 2
 455 269 491 172 498 148 c 1
 500 148 l 1
 515 203 560 312 566 327 c 2
 714 695 l 1
 898 695 l 1
 898 0 l 1
 774 0 l 1
 774 531 l 1
 774 553 774 569 774 569 c 1
 770 555 766 543 762 532 c 10
 698 369 l 17
 558 22 l 1
 440 22 l 1
 306 353 l 2
 264 460 237 525 226 569 c 1
 226 0 l 1
 102 0 l 1
EndSplineSet
EndChar
StartChar: N
Encoding: 78 78 23
Width: 1000
Flags: W
LayerCount: 2
Fore
SplineSet
158 0 m 1
 158 695 l 1
 364 695 l 1
 671 196 l 1
 718 120 l 1
 718 695 l 1
 842 695 l 1
 842 0 l 1
 636 0 l 1
 316 518 l 1
 281 574 l 1
 281 0 l 1
 158 0 l 1
EndSplineSet
EndChar
StartChar: O
Encoding: 79 79 24
Width: 1000
Flags: W
LayerCount: 2
Fore
SplineSet
126 345 m 0
 126 629 278 717 499 717 c 0
 739 717 874 617 874 343 c 0
 874 154 806 -22 501 -22 c 0
 186 -22 126 161 126 345 c 0
273 348 m 0
 273 204 314 62 500 62 c 0
 680 62 725 199 725 346 c 0
 725 560 635 638 499 638 c 0
 375 638 273 570 273 348 c 0
EndSplineSet
EndChar
StartChar: P
Encoding: 80 80 25
Width: 1000
Flags: W
LayerCount: 2
Fore
SplineSet
199 0 m 1
 199 695 l 1
 505 695 l 2
 605 695 697 685 750 626 c 0
 787 586 801 531 801 478 c 0
 801 318 684 280 589 271 c 0
 564 269 541 268 524 268 c 2
 347 268 l 1
 347 0 l 1
 199 0 l 1
344 347 m 1
 479 347 l 2
 594 347 661 365 661 477 c 0
 661 592 593 608 479 608 c 2
 344 608 l 1
 344 347 l 1
EndSplineSet
EndChar
StartChar: Q
Encoding: 81 81 26
Width: 1000
Flags: W
LayerCount: 2
Fore
SplineSet
126 342 m 0
 126 561 209 686 416 712 c 0
 444 715 473 717 504 717 c 0
 635 717 724 686 776 638 c 0
 851 567 874 456 874 343 c 0
 874 186 830 84 739 26 c 1
 843 -111 l 1
 657 -111 l 1
 584 -18 l 1
 542 -21 534 -22 500 -22 c 0
 391 -22 309 -2 253 32 c 0
 155 98 126 217 126 342 c 0
271 339 m 2
 272 251 272 93 444 61 c 0
 462 57 481 56 500 56 c 0
 507 56 516 56 524 57 c 1
 414 195 l 1
 586 195 l 1
 662 112 l 1
 663 112 l 1
 716 167 729 231 729 342 c 0
 729 445 718 550 633 604 c 0
 596 628 548 639 501 639 c 0
 495 639 488 638 482 638 c 0
 430 635 376 619 340 583 c 0
 273 521 271 411 271 362 c 2
 271 339 l 2
EndSplineSet
EndChar
StartChar: R
Encoding: 82 82 27
Width: 1000
Flags: W
LayerCount: 2
Fore
SplineSet
181 0 m 1
 181 695 l 1
 454 695 l 2
 532 695 613 694 678 666 c 0
 769 625 784 544 784 497 c 0
 784 400 721 340 623 321 c 1
 819 0 l 1
 671 0 l 1
 458 311 l 1
 326 311 l 1
 326 0 l 1
 181 0 l 1
326 384 m 1
 469 384 l 2
 524 384 569 387 599 404 c 0
 628 420 644 448 644 496 c 0
 644 545 627 573 596 589 c 0
 566 604 524 608 470 608 c 2
 326 608 l 1
 326 384 l 1
EndSplineSet
EndChar
StartChar: S
Encoding: 83 83 28
Width: 1000
Flags: W
LayerCount: 2
Fore
SplineSet
224 47 m 1
 247 179 l 1
 315 124 387 87 507 87 c 0
 631 87 650 145 650 184 c 0
 650 235 602 265 564 277 c 0
 490 299 339 294 268 402 c 0
 250 429 236 464 236 509 c 0
 236 615 288 716 499 717 c 2
 504 717 l 2
 602 717 663 705 740 668 c 1
 717 537 l 1
 688 561 636 613 502 613 c 0
 383 613 362 561 362 527 c 0
 362 479 404 458 458 444 c 4
 511 431 574 425 621 409 c 0
 703 378 776 305 776 199 c 0
 776 88 727 -22 507 -22 c 0
 395 -22 302 3 224 47 c 1
EndSplineSet
EndChar
StartChar: T
Encoding: 84 84 29
Width: 1000
Flags: W
LayerCount: 2
Fore
SplineSet
146 584 m 1
 146 689 l 1
 854 689 l 1
 854 584 l 1
 574 588 l 1
 574 0 l 1
 426 0 l 1
 426 588 l 1
 146 584 l 1
EndSplineSet
EndChar
StartChar: U
Encoding: 85 85 30
Width: 1000
Flags: W
LayerCount: 2
Fore
SplineSet
180 246 m 2
 180 695 l 1
 328 695 l 1
 328 230 l 2
 328 209 330 190 332 172 c 0
 337 139 348 111 376 92 c 0
 402 74 442 64 502 64 c 0
 569 64 612 77 638 98 c 0
 681 132 682 185 682 232 c 2
 682 695 l 1
 820 695 l 1
 820 242 l 2
 820 164 804 93 752 44 c 0
 709 3 631 -22 505 -22 c 0
 391 -22 314 -3 270 27 c 0
 215 64 192 120 184 181 c 0
 181 202 180 224 180 246 c 2
EndSplineSet
EndChar
StartChar: V
Encoding: 86 86 31
Width: 1000
Flags: W
LayerCount: 2
Fore
SplineSet
103 695 m 1
 265 695 l 1
 403 380 l 2
 455 228 474 177 489 125 c 1
 508 193 533 255 555 320 c 2
 753 695 l 1
 897 695 l 1
 576 0 l 1
 386 0 l 1
 103 695 l 1
EndSplineSet
EndChar
StartChar: W
Encoding: 87 87 32
Width: 1000
Flags: W
LayerCount: 2
Fore
SplineSet
11 695 m 1
 143 695 l 1
 143 695 239 344 262 247 c 2
 291 125 l 1
 300 185 298 165 337 321 c 2
 430 695 l 1
 577 695 l 1
 577 695 638 452 664 358 c 2
 696 240 l 2
 711 184 720 136 721 125 c 1
 727 161 754 263 765 303 c 2
 870 695 l 1
 989 695 l 1
 801 0 l 1
 632 0 l 1
 553 324 l 2
 513 487 511 505 497 569 c 1
 490 529 469 439 460 402 c 2
 362 0 l 1
 199 0 l 1
 11 695 l 1
EndSplineSet
EndChar
StartChar: X
Encoding: 88 88 33
Width: 1000
Flags: W
LayerCount: 2
Fore
SplineSet
113 0 m 1
 401 369 l 1
 401 369 l 1
 129 695 l 1
 310 695 l 1
 491 487 l 1
 667 695 l 1
 841 695 l 1
 583 368 l 1
 583 368 l 1
 887 0 l 1
 710 0 l 1
 493 261 l 1
 491 261 l 1
 280 0 l 1
 113 0 l 1
EndSplineSet
EndChar
StartChar: Y
Encoding: 89 89 34
Width: 1000
Flags: W
LayerCount: 2
Fore
SplineSet
88 695 m 1
 277 695 l 1
 424 516 l 2
 477 451 500 422 511 403 c 1
 533 447 737 683 745 695 c 1
 912 695 l 1
 559 278 l 1
 559 0 l 1
 414 0 l 1
 414 278 l 1
 88 695 l 1
EndSplineSet
EndChar
StartChar: Z
Encoding: 90 90 35
Width: 1000
Flags: W
LayerCount: 2
Fore
SplineSet
190 0 m 1
 190 67 l 1
 190 67 l 1
 606 599 l 1
 205 595 l 1
 205 695 l 1
 804 695 l 1
 804 631 l 1
 804 631 l 1
 388 101 l 1
 810 105 l 1
 810 0 l 1
 190 0 l 1
EndSplineSet
EndChar
StartChar: bracketleft
Encoding: 91 91 85
Width: 1000
Flags: MW
LayerCount: 2
Fore
SplineSet
612 -222 m 1
 612 750 l 1
 945 750 l 1
 945 678 l 1
 746 678 l 1
 746 -150 l 1
 945 -150 l 1
 945 -222 l 1
 612 -222 l 1
EndSplineSet
EndChar
StartChar: backslash
Encoding: 92 92 86
Width: 1000
Flags: W
LayerCount: 2
Fore
SplineSet
8 714 m 0
 8 735 21 750 38 750 c 0
 64 750 79 724 91 713 c 2
 983 -175 l 2
 986 -177 992 -182 992 -186 c 0
 992 -204 982 -222 961 -222 c 0
 936 -222 922 -194 907 -180 c 2
 23 685 l 2
 15 693 8 703 8 714 c 0
EndSplineSet
EndChar
StartChar: bracketright
Encoding: 93 93 87
Width: 1000
Flags: MW
LayerCount: 2
Fore
SplineSet
55 -150 m 1
 255 -150 l 1
 255 678 l 1
 55 678 l 1
 55 750 l 1
 388 750 l 1
 388 -222 l 1
 55 -222 l 1
 55 -150 l 1
EndSplineSet
EndChar
StartChar: asciicircum
Encoding: 94 94 88
Width: 1000
Flags: MW
LayerCount: 2
Fore
SplineSet
334 472 m 1
 446 620 l 1
 554 620 l 1
 666 472 l 1
 594 472 l 1
 500 558 l 1
 406 472 l 1
 334 472 l 1
EndSplineSet
EndChar
StartChar: underscore
Encoding: 95 95 89
Width: 1000
Flags: MW
LayerCount: 2
Fore
SplineSet
100 -297 m 0
 100 -281 109 -255 149 -255 c 2
 846 -255 l 2
 893 -255 900 -280 900 -297 c 0
 900 -312 893 -339 848 -339 c 2
 150 -339 l 2
 105 -339 100 -311 100 -297 c 0
EndSplineSet
EndChar
StartChar: grave
Encoding: 96 96 90
Width: 1000
Flags: MW
LayerCount: 2
Fore
SplineSet
382 681 m 1
 520 681 l 1
 618 542 l 1
 544 542 l 1
 382 681 l 1
EndSplineSet
EndChar
StartChar: a
Encoding: 97 97 36
Width: 1000
Flags: W
LayerCount: 2
Fore
SplineSet
234 129 m 0
 234 279 620 267 622 270 c 1
 622 311 l 2
 620 331 623 371 596 397 c 0
 581 412 556 422 514 422 c 0
 372 422 319 370 294 346 c 1
 286 446 l 1
 346 476 414 489 520 489 c 0
 719 489 766 420 766 315 c 2
 766 0 l 1
 624 0 l 1
 624 69 l 1
 572 17 476 -11 383 -11 c 0
 289 -11 234 60 234 129 c 0
372 131 m 0
 372 94 413 62 476 62 c 0
 524 62 622 80 622 154 c 2
 622 229 l 1
 526 224 372 210 372 131 c 0
EndSplineSet
EndChar
StartChar: b
Encoding: 98 98 37
Width: 1000
Flags: W
LayerCount: 2
Fore
SplineSet
221 0 m 1
 221 695 l 1
 355 695 l 1
 355 424 l 1
 412 456 490 483 594 483 c 0x7c
 745 483 779 366 779 234 c 0
 779 58 700 -11 550 -11 c 0xbc
 463 -11 406 12 358 44 c 1
 358 0 l 1
 221 0 l 1
358 97 m 1
 364 93 373 87 387 80 c 4
 407 71 434 62 474 62 c 0
 630 62 642 138 642 232 c 0
 642 331 638 411 490 411 c 0
 434 411 397 398 358 378 c 1
 358 97 l 1
EndSplineSet
EndChar
StartChar: c
Encoding: 99 99 38
Width: 1000
Flags: W
LayerCount: 2
Fore
SplineSet
248 237 m 0
 248 439 361 489 544 489 c 0
 650 489 685 478 746 446 c 1
 730 351 l 1
 688 383 662 411 546 411 c 0
 394 411 388 326 386 257 c 2
 386 228 l 2
 386 132 413 67 543 67 c 0
 665 67 718 112 744 133 c 1
 752 35 l 1
 694 4 642 -11 538 -11 c 0
 296 -11 248 107 248 237 c 0
EndSplineSet
EndChar
StartChar: d
Encoding: 100 100 39
Width: 1000
Flags: W
LayerCount: 2
Fore
SplineSet
221 238 m 0
 221 316 233 398 290 445 c 0
 321 472 366 483 429 483 c 0xbc
 523 483 594 458 645 428 c 1
 645 695 l 1
 779 695 l 1xba
 779 0 l 1
 642 0 l 1
 642 52 l 1
 586 15 521 -11 427 -11 c 0
 381 -11 296 -5 253 72 c 0
 228 118 221 172 221 238 c 0
358 250 m 0
 358 169 360 124 394 94 c 0
 421 72 466 61 508 61 c 0
 598 61 638 102 642 103 c 1
 642 382 l 1xbc
 633 387 624 390 615 394 c 4
 594 403 573 408 547 410 c 0
 541 410 534 411 526 411 c 0
 367 411 358 328 358 250 c 0
EndSplineSet
EndChar
StartChar: e
Encoding: 101 101 40
Width: 1000
Flags: W
LayerCount: 2
Fore
SplineSet
225 240 m 0
 225 368 274 489 520 489 c 0
 753 489 775 360 775 250 c 1
 775 250 l 1
 353 250 l 1
 353 202 356 149 400 108 c 0
 418 91 460 62 550 62 c 0
 670 62 729 103 762 129 c 1
 769 38 l 1
 736 19 673 -11 539 -11 c 0
 348 -11 225 39 225 240 c 0
359 304 m 1
 662 304 l 1
 650 397 578 416 521 416 c 0
 392 416 367 331 359 304 c 1
EndSplineSet
EndChar
StartChar: f
Encoding: 102 102 41
Width: 1000
Flags: W
LayerCount: 2
Fore
SplineSet
342 400 m 1
 342 472 l 1
 398 472 l 1
 398 540 l 2
 398 554 399 567 401 579 c 0
 408 619 425 647 450 667 c 0
 487 696 546 706 621 706 c 0
 655 706 677 703 714 695 c 1
 714 594 l 1
 687 618 665 633 621 633 c 0
 598 633 576 628 560 620 c 0
 530 606 528 583 528 567 c 2
 528 472 l 1
 648 472 l 1
 648 400 l 1
 531 400 l 1
 531 0 l 1
 398 0 l 1
 398 400 l 1
 342 400 l 1
EndSplineSet
EndChar
StartChar: g
Encoding: 103 103 42
Width: 1000
Flags: W
LayerCount: 2
Fore
SplineSet
353 295 m 2xea80
 353 269 354 244 378 228 c 0
 393 217 421 211 460 211 c 0
 504 211 530 217 546 228 c 0
 570 244 572 269 572 296 c 2
 572 313 l 2
 572 338 569 362 548 378 c 0
 533 390 508 397 466 397 c 0
 415 397 387 388 372 374 c 0
 354 358 353 335 353 312 c 2
 353 295 l 2xea80
310 -63 m 0xe440
 310 -87 322 -103 341 -114 c 0
 377 -130 440 -134 506 -134 c 2
 515 -134 l 2
 598 -134 634 -123 654 -108 c 0
 671 -95 676 -80 676 -67 c 0
 676 -27 628 -17 516 -17 c 2
 407 -17 l 1
 376 -17 l 2
 338 -17 310 -21 310 -63 c 0xe440
207 -65 m 0xec40
 207 -9 241 17 263 29 c 1
 239 66 237 92 237 108 c 0xe9
 237 140 247 166 264 190 c 1
 264 192 l 1
 243 215 224 250 224 303 c 0
 224 343 233 395 279 430 c 0
 309 453 357 469 462 469 c 2
 466 469 l 2xea
 592 469 614 445 631 445 c 0
 643 445 711 468 774 468 c 1
 793 394 l 1xf2
 780 394 746 398 730 398 c 2
 676 397 l 1xea40
 695 365 700 336 700 304 c 0xe880
 700 265 691 214 648 179 c 0
 618 155 571 138 461 138 c 0
 401 138 353 142 310 159 c 1xec80
 309 153 308 147 308 141 c 0xe9
 308 122 316 92 371 92 c 2
 532 92 l 2
 604 92 661 88 704 67 c 4
 738 51 764 25 774 -18 c 1
 777 -31 779 -46 779 -63 c 0
 779 -106 760 -157 687 -185 c 0
 637 -204 583 -206 509 -206 c 0
 449 -206 344 -206 287 -180 c 0
 258 -167 233 -147 219 -117 c 0
 211 -101 207 -83 207 -65 c 0xec40
EndSplineSet
EndChar
StartChar: h
Encoding: 104 104 43
Width: 1000
Flags: W
LayerCount: 2
Fore
SplineSet
236 0 m 1
 236 695 l 1
 370 695 l 1
 370 379 l 1
 397 417 466 483 612 483 c 0
 756 483 764 404 764 314 c 0
 764 300 763 286 763 273 c 2
 763 0 l 1
 627 0 l 1
 627 327 l 2
 627 374 613 411 525 411 c 0
 423 411 381 341 375 291 c 2
 375 0 l 1
 236 0 l 1
EndSplineSet
EndChar
StartChar: i
Encoding: 105 105 44
Width: 1000
Flags: W
LayerCount: 2
Fore
SplineSet
433 0 m 5
 433 472 l 5
 567 472 l 5
 567 0 l 5
 433 0 l 5
433 573 m 1
 433 695 l 1
 567 695 l 1
 567 573 l 1
 433 573 l 1
EndSplineSet
EndChar
StartChar: j
Encoding: 106 106 45
Width: 1000
Flags: W
LayerCount: 2
Fore
SplineSet
326 -148 m 1
 347 -76 l 1
 375 -88 392 -93 422 -93 c 0
 462 -93 479 -85 485 -72 c 0
 487 -67 488 -61 488 -55 c 2
 488 472 l 1
 622 472 l 1
 622 -34 l 2
 621 -63 623 -110 590 -143 c 0
 569 -164 534 -178 475 -178 c 0
 415 -178 367 -165 326 -148 c 1
488 573 m 1
 488 695 l 1
 622 695 l 1
 622 573 l 1
 488 573 l 1
EndSplineSet
EndChar
StartChar: k
Encoding: 107 107 46
Width: 1000
Flags: W
LayerCount: 2
Fore
SplineSet
231 0 m 1
 231 695 l 1
 349 695 l 1
 349 316 l 1
 572 472 l 1
 745 472 l 1
 542 293 l 1
 769 0 l 1
 634 0 l 1
 424 209 l 1
 346 155 l 1
 346 0 l 1
 231 0 l 1
EndSplineSet
EndChar
StartChar: l
Encoding: 108 108 47
Width: 1000
Flags: W
LayerCount: 2
Fore
SplineSet
433 0 m 1
 433 695 l 1
 567 695 l 1
 567 0 l 1
 433 0 l 1
EndSplineSet
EndChar
StartChar: m
Encoding: 109 109 48
Width: 1000
Flags: W
LayerCount: 2
Fore
SplineSet
126 0 m 1xdc
 126 478 l 1
 257 478 l 1
 257 415 l 1
 258 373 l 1
 276 414 323 483 421 483 c 0xec
 555 483 556 410 566 379 c 1
 584 417 630 484 726 484 c 0
 770 484 800 476 822 463 c 4
 871 433 874 376 874 314 c 0
 874 300 873 286 873 273 c 2
 873 0 l 1
 737 0 l 1
 737 327 l 2
 737 375 727 411 669 411 c 0
 600 411 572 341 568 291 c 2
 568 0 l 1
 431 0 l 1
 431 327 l 2
 431 375 422 411 363 411 c 0
 295 411 267 341 263 291 c 2
 263 0 l 1
 126 0 l 1xdc
EndSplineSet
EndChar
StartChar: n
Encoding: 110 110 49
Width: 1000
Flags: W
LayerCount: 2
Fore
SplineSet
237 0 m 1xd8
 237 478 l 1
 368 478 l 1
 368 415 l 1
 369 373 l 1
 393 415 464 483 611 483 c 0
 669 483 703 471 725 452 c 4
 760 421 763 370 763 315 c 0
 763 301 762 288 762 274 c 2
 762 0 l 1
 626 0 l 1
 626 327 l 2xe8
 626 374 612 411 524 411 c 0
 422 411 380 341 374 291 c 2
 374 0 l 1
 237 0 l 1xd8
EndSplineSet
EndChar
StartChar: o
Encoding: 111 111 50
Width: 1000
Flags: W
LayerCount: 2
Fore
SplineSet
202 239 m 0
 202 436 322 489 500 489 c 0
 678 489 798 436 798 239 c 0
 798 28 678 -11 500 -11 c 0
 322 -11 202 28 202 239 c 0
338 241 m 0
 338 164 340 67 502 67 c 0
 664 67 662 164 662 241 c 0
 662 323 662 416 500 416 c 0
 338 416 338 323 338 241 c 0
EndSplineSet
EndChar
StartChar: p
Encoding: 112 112 51
Width: 1000
Flags: W
LayerCount: 2
Fore
SplineSet
221 -167 m 1
 221 472 l 1
 355 472 l 1
 355 422 l 1
 376 434 404 446 432 456 c 0
 482 472 540 483 609 483 c 0
 672 483 715 463 743 416 c 0
 766 377 779 319 779 238 c 0
 779 159 764 102 737 62 c 0
 702 11 648 -11 552 -11 c 0
 498 -11 456 -2 420 12 c 0
 398 21 376 32 358 44 c 1
 358 -167 l 1
 221 -167 l 1
358 96 m 1
 364 93 382 79 414 70 c 0
 430 65 450 62 472 62 c 0
 529 62 577 80 604 110 c 0
 644 156 640 205 642 247 c 2
 640 271 l 2
 637 295 631 334 603 364 c 4
 581 387 545 405 487 405 c 0
 459 405 434 401 414 396 c 0
 380 387 360 374 358 374 c 1
 358 96 l 1
EndSplineSet
EndChar
StartChar: q
Encoding: 113 113 52
Width: 1000
Flags: W
LayerCount: 2
Fore
SplineSet
220 235 m 0
 220 413 299 483 449 483 c 0
 567 483 622 433 646 411 c 1
 646 483 l 1
 780 483 l 1xf4
 780 -167 l 1
 641 -167 l 1
 641 53 l 1xf8
 589 13 515 -11 431 -11 c 0
 362 -11 308 4 274 42 c 0
 226 96 220 176 220 235 c 0
358 235 m 0xf4
 358 181 367 127 406 94 c 4
 428 74 462 62 510 62 c 0
 572 62 613 83 646 108 c 1
 646 334 l 2
 646 370 592 405 524 405 c 0
 480 405 413 393 380 338 c 0
 359 306 358 270 358 235 c 0xf4
EndSplineSet
EndChar
StartChar: r
Encoding: 114 114 53
Width: 1000
Flags: W
LayerCount: 2
Fore
SplineSet
352 0 m 1xd0
 352 478 l 1
 480 478 l 1
 480 403 l 1xe0
 481 357 l 1
 498 402 546 481 648 483 c 1
 648 381 l 1
 534 379 490 306 486 260 c 2
 486 0 l 1
 352 0 l 1xd0
EndSplineSet
EndChar
StartChar: s
Encoding: 115 115 54
Width: 1000
Flags: W
LayerCount: 2
Fore
SplineSet
282 36 m 1
 301 146 l 1
 314 133 368 68 510 68 c 0
 606 68 618 99 618 124 c 0
 618 152 594 170 558 178 c 0
 520 186 457 188 394 204 c 0
 363 215 333 233 311 265 c 0
 303 278 288 304 288 342 c 0
 288 408 313 445 350 466 c 4
 382 484 442 489 505 489 c 0
 600 489 639 482 702 456 c 1
 685 360 l 1
 633 399 595 417 487 417 c 0
 400 417 388 387 388 367 c 0
 388 313 479 313 571 300 c 0
 645 286 718 235 718 143 c 0
 718 87 701 50 674 26 c 0
 641 -2 591 -11 511 -11 c 0
 403 -11 341 5 282 36 c 1
EndSplineSet
EndChar
StartChar: t
Encoding: 116 116 55
Width: 1000
Flags: W
LayerCount: 2
Fore
SplineSet
315 400 m 1
 315 472 l 1
 385 472 l 1
 385 607 l 1
 513 607 l 1
 513 472 l 1xd0
 667 472 l 1
 667 400 l 1
 513 400 l 1
 513 158 l 2
 513 126 517 102 532 86 c 4
 544 74 562 67 582 67 c 0xe0
 633 67 664 103 667 103 c 1
 685 33 l 1
 630 7 574 -11 482 -11 c 0
 450 -11 428 0 413 16 c 0
 383 49 382 106 382 142 c 2
 382 400 l 1xe0
 315 400 l 1
EndSplineSet
EndChar
StartChar: u
Encoding: 117 117 56
Width: 1000
Flags: W
LayerCount: 2
Fore
SplineSet
238 130 m 2
 238 472 l 1
 374 472 l 1
 374 130 l 2
 376 93 375 71 396 60 c 0
 410 53 431 50 469 50 c 0
 502 50 540 57 570 75 c 0
 594 89 613 110 622 140 c 0
 625 151 626 162 626 175 c 2
 626 472 l 1
 762 472 l 1
 762 0 l 1
 630 0 l 1
 630 46 l 1
 629 67 l 1
 615 49 608 33 576 19 c 0
 539 3 480 -11 390 -11 c 0
 337 -11 304 -4 282 10 c 0
 243 34 238 77 238 130 c 2
EndSplineSet
EndChar
StartChar: v
Encoding: 118 118 57
Width: 1000
Flags: W
LayerCount: 2
Fore
SplineSet
208 472 m 1
 334 472 l 1
 441 248 l 2
 447 156 455 142 459 117 c 1
 477 165 650 436 670 472 c 1
 792 472 l 1
 543 0 l 1
 372 0 l 1
 208 472 l 1
EndSplineSet
EndChar
StartChar: w
Encoding: 119 119 58
Width: 1000
Flags: W
LayerCount: 2
Fore
SplineSet
104 472 m 1
 226 472 l 1
 306 192 312 164 318 133 c 1
 333 198 430 457 434 472 c 1
 576 472 l 1
 644 247 l 2
 670 152 674 139 680 117 c 1
 694 174 770 452 776 472 c 1
 896 472 l 1
 768 0 l 1
 598 0 l 1
 484 296 489 268 480 336 c 1
 471 268 380 31 362 0 c 1
 232 0 l 1
 104 472 l 1
EndSplineSet
EndChar
StartChar: x
Encoding: 120 120 59
Width: 1000
Flags: W
LayerCount: 2
Fore
SplineSet
194 0 m 1
 414 243 l 1
 414 247 l 1
 200 472 l 1
 340 472 l 1
 494 337 l 1
 498 337 l 1
 643 472 l 1
 788 472 l 1
 577 245 l 1
 577 244 l 1
 806 0 l 1
 668 0 l 1
 496 170 l 1
 330 0 l 1
 194 0 l 1
EndSplineSet
EndChar
StartChar: y
Encoding: 121 121 60
Width: 1000
Flags: W
LayerCount: 2
Fore
SplineSet
208 472 m 1
 342 472 l 1
 538 179 517 175 529 137 c 1
 532 204 661 443 670 472 c 1
 792 472 l 1
 595 -39 l 2
 569 -88 531 -120 486 -142 c 0
 430 -169 365 -178 317 -178 c 0
 286 -178 254 -174 238 -171 c 1
 229 -69 l 1
 254 -80 280 -93 319 -93 c 0
 355 -93 382 -87 402 -77 c 0
 438 -59 445 -27 460 0 c 1
 460 0 l 1
 460 0 l 1
 208 472 l 1
EndSplineSet
EndChar
StartChar: z
Encoding: 122 122 61
Width: 1000
Flags: W
LayerCount: 2
Fore
SplineSet
251 0 m 1
 251 49 l 1
 575 404 l 1
 266 402 l 1
 266 472 l 1
 746 472 l 1
 746 427 l 1
 424 74 l 1
 749 76 l 1
 749 0 l 1
 251 0 l 1
EndSplineSet
EndChar
StartChar: braceleft
Encoding: 123 123 91
Width: 1000
Flags: MW
LayerCount: 2
Fore
SplineSet
505 227 m 1
 505 300 l 1
 590 301 650 346 656 403 c 2
 657 426 l 1
 657 624 l 2
 658 642 656 669 677 694 c 0
 690 710 711 724 747 735 c 0
 793 749 841 750 888 750 c 2
 945 750 l 1
 945 678 l 1
 926 678 l 2
 809 678 793 660 793 627 c 2
 793 426 l 2
 793 408 793 390 787 373 c 0
 762 303 675 268 596 264 c 1
 596 263 l 1
 688 259 765 217 787 155 c 0
 793 138 793 120 793 101 c 2
 793 -99 l 2
 793 -139 823 -150 925 -150 c 2
 945 -150 l 1
 945 -222 l 1
 888 -222 l 2
 843 -222 783 -220 735 -203 c 0
 694 -189 662 -163 657 -120 c 2
 657 102 l 2
 656 121 657 132 649 151 c 0
 628 201 567 227 505 227 c 1
EndSplineSet
EndChar
StartChar: bar
Encoding: 124 124 92
Width: 1000
Flags: MW
LayerCount: 2
Fore
SplineSet
458 -173 m 2
 458 701 l 2
 458 718 463 730 470 737 c 0
 480 748 493 750 500 750 c 0
 509 750 521 748 530 738 c 0
 537 730 542 717 542 696 c 2
 542 -184 l 2
 541 -195 535 -204 528 -211 c 4
 520 -218 510 -222 500 -222 c 0
 491 -222 479 -219 470 -209 c 0
 463 -202 458 -190 458 -173 c 2
EndSplineSet
EndChar
StartChar: asciitilde
Encoding: 126 126 94
Width: 1000
Flags: MW
LayerCount: 2
Fore
SplineSet
256 566 m 1x58
 259 646 324 695 399 695 c 0x38
 499 695 542 639 604 639 c 0x58
 619 639 666 645 672 695 c 1x98
 744 695 l 1x38
 741 614 676 566 601 566 c 0x58
 503 566 458 622 397 622 c 0x38
 381 622 334 616 329 566 c 1x98
 256 566 l 1x58
EndSplineSet
EndChar
StartChar: cent
Encoding: 162 162 95
Width: 1000
Flags: MW
LayerCount: 2
Fore
SplineSet
259 236 m 0
 259 438 394 483 492 488 c 1
 492 561 l 1
 564 561 l 1
 564 489 l 1
 634 485 664 477 736 446 c 1
 719 351 l 1
 654 393 631 406 564 410 c 1
 564 68 l 1
 634 77 668 89 733 133 c 1
 741 35 l 1
 659 -2 609 -6 564 -10 c 1
 564 -83 l 1
 492 -83 l 1
 492 -10 l 1
 385 0 259 39 259 236 c 0
396 220 m 2
 397 154 410 87 492 70 c 1
 492 408 l 1
 388 387 397 280 396 242 c 2
 396 220 l 2
EndSplineSet
EndChar
StartChar: sterling
Encoding: 163 163 96
Width: 1000
Flags: W
LayerCount: 2
Fore
SplineSet
102 53 m 0
 102 105 159 139 264 139 c 0xbc
 278 139 290 139 304 138 c 1
 306 207 l 1
 306 311 l 1
 225 311 l 1
 225 384 l 1
 306 384 l 1
 306 512 l 2
 306 582 327 647 393 690 c 0
 443 722 519 742 631 742 c 0
 810 742 867 614 867 525 c 0
 867 473 829 467 811 465 c 1
 775 469 711 485 708 521 c 1
 708 521 l 1
 708 531 l 2
 708 636 687 669 631 669 c 0
 593 669 552 661 531 649 c 0
 489 626 485 593 485 593 c 1
 479 573 480 552 480 532 c 2
 480 384 l 1
 639 384 l 1
 639 311 l 1
 480 311 l 1
 480 215 l 2
 478 179 478 143 465 113 c 1
 492 106 630 82 718 82 c 0
 744 82 754 106 754 139 c 1
 898 139 l 1xbc
 895 40 806 -11 685 -11 c 0x7c
 580 -11 410 18 366 23 c 1
 334 12 317 -11 199 -11 c 0
 140 -11 102 15 102 53 c 0
247 50 m 0
 247 64 225 81 228 81 c 0
 237 81 270 56 270 56 c 1
 237 55 235 51 232 51 c 0
 224 51 247 53 247 50 c 0
EndSplineSet
EndChar
StartChar: currency
Encoding: 164 164 131
Width: 1000
Flags: MW
LayerCount: 2
Fore
SplineSet
130 -24 m 0
 130 -16 132 -10 136 -4 c 0
 142 5 152 14 164 26 c 0
 185 47 201 66 238 101 c 9
 238 101 l 17
 222 126 186 182 186 304 c 0
 186 425 222 481 238 506 c 9
 238 506 l 17
 150 593 130 610 130 631 c 0
 130 656 151 673 172 673 c 0
 177 673 183 672 188 670 c 0
 208 661 228 632 298 565 c 1
 362 611 441 619 502 619 c 0
 622 619 682 578 702 565 c 1
 702 565 l 1
 792 655 l 2
 799 662 811 673 828 673 c 0
 849 673 870 656 870 631 c 0
 870 602 842 589 762 506 c 1
 778 481 814 425 814 303 c 0
 814 182 778 126 762 101 c 1
 862 2 870 -1 870 -24 c 0
 870 -36 864 -47 856 -54 c 0
 848 -61 839 -65 828 -65 c 0
 822 -65 816 -64 810 -61 c 0
 792 -52 758 -12 702 42 c 9
 702 42 l 17
 638 -3 555 -11 500 -11 c 0
 379 -11 323 26 298 42 c 1
 203 -53 195 -65 172 -65 c 0
 147 -65 130 -45 130 -24 c 0
268 303 m 0
 268 171 320 72 496 72 c 2
 514 72 l 2
 632 76 732 119 732 304 c 0
 732 437 680 535 504 535 c 2
 486 535 l 2
 369 531 268 489 268 303 c 0
EndSplineSet
EndChar
StartChar: yen
Encoding: 165 165 97
Width: 1000
Flags: MW
LayerCount: 2
Fore
SplineSet
100 214 m 0
 100 222 104 233 114 241 c 0
 121 246 132 250 148 250 c 2
 428 250 l 1
 428 277 l 17
 332 414 l 1
 148 414 l 2
 142 414 136 414 130 415 c 0
 121 417 113 422 108 428 c 4
 102 435 100 443 100 450 c 0
 100 461 106 470 114 477 c 0
 118 481 123 483 128 485 c 0
 133 486 138 487 144 487 c 0
 146 487 148 487 150 487 c 2
 282 487 l 1
 138 695 l 1
 314 695 l 1
 456 487 l 1
 560 487 l 1
 704 695 l 1
 862 695 l 1
 718 487 l 1
 850 487 l 2
 858 487 865 487 872 485 c 0
 888 480 900 466 900 450 c 0
 900 438 891 420 870 415 c 0
 864 414 858 414 852 414 c 2
 668 414 l 1
 572 278 l 1
 572 250 l 1
 858 250 l 2
 867 250 874 248 880 245 c 0
 894 238 900 224 900 213 c 0
 900 203 896 190 880 183 c 0
 873 180 865 178 854 178 c 2
 572 178 l 1
 572 0 l 1
 428 0 l 1
 428 178 l 1
 146 178 l 2
 144 178 142 177 140 177 c 0
 136 177 133 177 130 178 c 0
 123 180 116 183 112 187 c 0
 104 195 100 205 100 214 c 0
504 414 m 1
 508 403 l 1
 514 414 l 1
 504 414 l 1
EndSplineSet
EndChar
StartChar: brokenbar
Encoding: 166 166 98
Width: 1000
Flags: MW
LayerCount: 2
Fore
SplineSet
458 136 m 2
 458 181 487 186 500 186 c 0
 516 186 542 178 542 137 c 2
 542 -170 l 2
 542 -217 514 -222 500 -222 c 0
 485 -222 458 -214 458 -173 c 2
 458 136 l 2
458 391 m 2
 458 698 l 2
 458 744 486 750 500 750 c 0
 516 750 542 741 542 700 c 2
 542 393 l 2
 542 347 513 341 500 341 c 0
 485 341 458 348 458 391 c 2
EndSplineSet
EndChar
StartChar: section
Encoding: 167 167 99
Width: 1000
Flags: MW
LayerCount: 2
Fore
SplineSet
296 -109 m 1
 315 1 l 1
 343 -35 391 -105 509 -105 c 0
 564 -105 578 -46 578 -15 c 0
 578 47 512 50 447 88 c 0
 425 101 323 161 323 269 c 0
 323 285 326 318 348 352 c 0
 358 368 373 383 393 398 c 1
 393 399 l 1
 356 430 323 477 323 539 c 0
 323 629 402 706 517 706 c 0
 599 706 650 682 700 650 c 1
 690 590 l 1
 682 545 l 1
 665 566 620 633 519 633 c 0
 462 633 449 571 449 543 c 0
 449 511 468 494 494 480 c 0
 519 467 551 456 580 439 c 0
 629 411 704 353 704 258 c 0
 704 231 697 205 683 182 c 4
 671 162 655 145 635 130 c 1
 635 129 l 1
 675 94 704 45 704 -11 c 0
 704 -101 625 -178 511 -178 c 0
 425 -178 367 -158 296 -109 c 1
449 272 m 0
 449 244 463 226 490 211 c 0
 507 202 528 193 554 183 c 1
 558 189 578 212 578 256 c 0
 578 282 566 299 542 314 c 0
 525 324 503 334 474 345 c 1
 469 337 449 316 449 272 c 0
EndSplineSet
EndChar
StartChar: dieresis
Encoding: 168 168 100
Width: 1000
Flags: MW
LayerCount: 2
Fore
SplineSet
337 566 m 5
 337 678 l 5
 449 678 l 5
 449 566 l 5
 337 566 l 5
551 566 m 5
 551 678 l 5
 663 678 l 5
 663 566 l 5
 551 566 l 5
EndSplineSet
EndChar
StartChar: degree
Encoding: 176 176 102
Width: 1000
Flags: MW
LayerCount: 2
Fore
SplineSet
60 572 m 0
 60 653 110 695 182 695 c 0
 257 695 304 651 304 573 c 0
 304 491 254 450 182 450 c 0
 102 450 60 501 60 572 c 0
143 572 m 0
 143 539 160 534 181 534 c 2
 184 534 l 2
 214 534 221 550 221 573 c 0
 221 599 211 611 184 611 c 0
 161 611 143 607 143 572 c 0
EndSplineSet
EndChar
StartChar: plusminus
Encoding: 177 177 103
Width: 1000
Flags: MW
LayerCount: 2
Fore
SplineSet
134.5 17 m 0
 134.5 32 141.5 59 186.5 59 c 2
 458.5 59 l 1
 458.5 300 l 1
 187.5 300 l 2
 142.5 300 134.5 325 134.5 341 c 0
 134.5 358 142.5 383 187.5 383 c 2
 458.5 383 l 1
 458.5 655 l 2
 458.5 703 487.5 708 499.5 708 c 0
 515.5 708 541.5 699 541.5 654 c 2
 541.5 383 l 1
 812.5 383 l 2
 857.5 383 865.5 358 865.5 342 c 0
 865.5 325 857.5 300 812.5 300 c 2
 541.5 300 l 1
 541.5 59 l 1
 808.5 59 l 2
 823.5 59 835.5 58 846.5 52 c 0
 858.5 44 865.5 30 865.5 16 c 0
 865.5 3 858.5 -9 847.5 -17 c 0
 836.5 -25 823.5 -25 810.5 -25 c 2
 186.5 -25 l 2
 138.5 -25 134.5 5 134.5 17 c 0
EndSplineSet
EndChar
StartChar: acute
Encoding: 180 180 104
Width: 1000
Flags: MW
LayerCount: 2
Fore
SplineSet
382 542 m 1
 482 681 l 1
 618 681 l 1
 456 542 l 1
 382 542 l 1
EndSplineSet
EndChar
StartChar: paragraph
Encoding: 182 182 105
Width: 1000
Flags: MW
LayerCount: 2
Fore
SplineSet
210 458 m 0
 210 565 292 678 458 693 c 0
 471 694 484 695 497 695 c 2
 739 695 l 2
 783 695 790 665 790 653 c 0
 790 639 782 625 768 617 c 0
 758 611 747 611 736 611 c 2
 698 611 l 1
 698 -112 l 2
 698 -119 699 -126 697 -133 c 0
 693 -152 676 -166 657 -166 c 0
 637 -166 620 -152 616 -133 c 0
 615 -126 615 -119 615 -112 c 2
 615 611 l 1
 538 611 l 1
 538 -117 l 2
 538 -135 533 -147 526 -154 c 4
 516 -164 503 -166 497 -166 c 0
 489 -166 479 -164 470 -157 c 0
 462 -150 455 -139 455 -121 c 2
 455 224 l 1
 292 245 210 352 210 458 c 0
EndSplineSet
EndChar
StartChar: multiply
Encoding: 215 215 106
Width: 1000
Flags: MW
LayerCount: 2
Fore
SplineSet
294 98 m 0
 294 111 309 132 316 139 c 2
 442 264 l 1
 312 392 l 2
 300 404 296 411 294 417 c 2
 293 421 294 424 294 429 c 0
 294 449 310 467 330 470 c 1
 338 470 l 2
 351 469 361 462 374 449 c 2
 500 323 l 1
 626 448 l 2
 638 460 652 470 664 470 c 0
 686 470 706 453 706 429 c 0
 706 424 706 419 704 414 c 0
 701 408 696 401 688 392 c 2
 558 263 l 1
 678 145 l 2
 692 130 701 122 704 116 c 0
 707 110 706 106 706 99 c 0
 706 66 686 58 662 57 c 1
 650 58 640 64 626 77 c 2
 500 204 l 1
 368 73 l 2
 359 64 347 57 336 57 c 0
 313 57 294 76 294 98 c 0
EndSplineSet
EndChar
StartChar: divide
Encoding: 247 247 107
Width: 1000
Flags: MW
LayerCount: 2
Fore
SplineSet
226 263 m 0
 226 283 239 302 262 305 c 2
 718 305 l 2
 735 305 747 305 758 297 c 0
 769 289 774 277 774 263 c 0
 774 255 773 245 766 237 c 0
 759 228 746 222 724 222 c 2
 274 222 l 2
 230 222 226 253 226 263 c 0
394 -51 m 2
 394 61 l 2
 394 108 428 111 442 111 c 2
 560 111 l 2
 605 111 608 79 608 59 c 2
 608 -53 l 2
 608 -80 597 -103 558 -103 c 2
 442 -103 l 2
 401 -103 394 -76 394 -51 c 2
394 468 m 2
 394 580 l 2
 394 627 427 630 442 630 c 2
 562 630 l 2
 603 630 608 600 608 578 c 2
 608 466 l 2
 608 439 597 416 558 416 c 2
 440 416 l 2
 400 416 394 443 394 468 c 2
EndSplineSet
EndChar
StartChar: quoteleft
Encoding: 8216 8216 108
Width: 1000
Flags: MW
LayerCount: 2
Fore
SplineSet
783 452 m 1
 783 565 l 25
 783 565 783 580 785 584 c 0
 788 592 848 695 848 695 c 1
 914 695 l 1
 875 583 l 1
 914 583 l 1
 914 452 l 1
 783 452 l 1
EndSplineSet
EndChar
StartChar: quotedblleft
Encoding: 8220 8220 110
Width: 1000
Flags: MW
LayerCount: 2
Fore
SplineSet
868 452 m 1
 868 565 l 25
 868 565 868 580 870 584 c 0
 873 592 933 695 933 695 c 1
 999 695 l 1
 960 583 l 1
 999 583 l 1
 999 452 l 1
 868 452 l 1
628 452 m 1
 628 565 l 25
 628 565 628 580 630 584 c 0
 633 592 693 695 693 695 c 1
 759 695 l 1
 720 583 l 1
 759 583 l 1
 759 452 l 1
 628 452 l 1
EndSplineSet
EndChar
StartChar: dagger
Encoding: 8224 8224 112
Width: 1000
Flags: MW
LayerCount: 2
Fore
SplineSet
316 472 m 0
 316 514 350 540 384 540 c 0
 425 540 442 502 486 487 c 1
 472 550 432 585 432 637 c 0
 432 681 463 706 500 706 c 0
 537 706 568 679 568 637 c 0
 568 585 528 548 514 487 c 1
 558 502 574 540 616 540 c 0
 656 540 684 510 684 472 c 0
 684 434 655 405 616 404 c 0
 575 404 557 443 514 458 c 1
 523 380 568 347 568 257 c 2
 568 -189 l 1
 432 -189 l 1
 432 257 l 2
 432 346 477 382 486 458 c 1
 443 443 423 404 382 404 c 3
 344 404 316 434 316 472 c 0
EndSplineSet
EndChar
StartChar: daggerdbl
Encoding: 8225 8225 113
Width: 1000
Flags: MW
LayerCount: 2
Fore
SplineSet
316 42 m 0
 316 80 344 111 384 111 c 0
 424 111 439 76 486 57 c 1
 476 111 432 144 432 195 c 0
 432 239 465 263 500 263 c 0
 538 263 568 236 568 196 c 0
 568 145 524 110 514 57 c 1
 555 74 578 111 616 111 c 0
 654 111 684 80 684 42 c 0
 684 5 655 -25 616 -25 c 0
 575 -25 561 9 514 28 c 1
 524 -26 568 -58 568 -110 c 0
 568 -153 535 -178 500 -178 c 0
 462 -178 432 -151 432 -110 c 0
 432 -59 475 -26 486 28 c 1
 438 9 427 -25 384 -25 c 0
 342 -25 316 6 316 42 c 0
316 485 m 0
 316 523 345 553 384 553 c 0
 425 553 441 516 486 500 c 1
 469 565 432 587 432 638 c 0
 432 679 463 706 500 706 c 0
 538 706 568 679 568 638 c 0
 568 585 525 555 514 500 c 1
 557 516 574 553 616 553 c 0
 656 553 684 522 684 484 c 0
 684 447 655 417 616 417 c 0
 575 417 559 454 514 470 c 1
 531 405 568 383 568 332 c 0
 568 291 537 264 500 264 c 0
 462 264 432 291 432 332 c 0
 432 385 475 414 486 470 c 1
 443 454 424 417 382 417 c 0
 343 417 316 448 316 485 c 0
EndSplineSet
EndChar
StartChar: perthousand
Encoding: 8240 8240 118
Width: 1000
Flags: W
LayerCount: 2
Fore
SplineSet
35 549 m 0
 35 653 55 750 176 750 c 0
 296 750 320 641 320 547 c 0
 320 436 285 352 175 347 c 0
 78 343 35 403 35 549 c 0
126 541 m 27
 126 488 130 420 175 420 c 0
 224 420 228 504 228 549 c 0
 228 608 222 677 175 677 c 0
 131 677 126 599 126 541 c 27
97 -14 m 0
 97 1 105 12 112 21 c 2
 539 723 l 2
 541 727 552 750 572 750 c 0
 592 750 604 729 604 708 c 0
 604 696 600 687 594 677 c 2
 167 -32 l 2
 165 -36 154 -55 136 -55 c 0
 115 -55 97 -37 97 -14 c 0
386 147 m 0
 386 259 421 347 532 347 c 0
 653 347 675 239 675 144 c 0
 675 -4 614 -56 531 -56 c 0
 415 -56 386 44 386 147 c 0
482 152 m 3
 482 56 494 7 531 7 c 0
 571 7 583 85 583 146 c 3
 583 216 569 274 531 274 c 0
 497 274 482 229 482 152 c 3
679 147 m 0
 679 292 737 347 825 347 c 0
 935 347 965 239 965 144 c 0
 965 33 921 -56 824 -56 c 0
 738 -56 679 0 679 147 c 0
776 138 m 3
 776 60 788 17 824 17 c 0
 862 17 877 77 877 146 c 0
 877 234 860 274 824 274 c 0
 784 274 776 224 776 138 c 3
EndSplineSet
EndChar
StartChar: minute
Encoding: 8242 8242 115
Width: 1000
Flags: MW
LayerCount: 2
Fore
SplineSet
19 517 m 1
 76 695 l 1
 213 695 l 1
 92 517 l 1
 19 517 l 1
EndSplineSet
EndChar
StartChar: overline
Encoding: 8254 8254 114
Width: 1000
Flags: MW
LayerCount: 2
Fore
SplineSet
100 771 m 0
 100 787 109 813 149 813 c 2
 846 813 l 2
 893 813 900 788 900 771 c 0
 900 756 893 729 848 729 c 2
 150 729 l 2
 105 729 100 757 100 771 c 0
EndSplineSet
EndChar
StartChar: asterism
Encoding: 8258 8258 133
Width: 1000
Flags: MW
LayerCount: 2
Fore
SplineSet
543 -34 m 0
 543 -13 559 2 572 6 c 2
 710 54 l 1
 710 54 l 1
 564 103 543 102 543 142 c 0
 543 170 566 200 596 200 c 0
 621 200 633 178 730 90 c 1
 718 145 699 229 699 248 c 0
 699 276 728 290 750 290 c 0
 774 290 802 274 802 246 c 0
 802 231 796 215 770 90 c 1
 884 196 884 200 904 200 c 0
 934 200 957 170 957 142 c 0
 957 122 953 111 928 102 c 2
 790 54 l 1
 790 54 l 1
 935 5 957 7 957 -34 c 0
 957 -62 934 -91 904 -91 c 0
 879 -91 867 -69 770 18 c 1
 782 -33 802 -131 802 -138 c 0
 802 -166 774 -182 750 -182 c 0
 725 -182 698 -164 698 -138 c 0
 698 -122 707 -94 730 18 c 1
 617 -88 616 -91 597 -91 c 0
 566 -91 543 -62 543 -34 c 0
43 -34 m 0
 43 -13 59 2 72 6 c 2
 210 54 l 1
 210 54 l 1
 64 103 43 102 43 142 c 0
 43 170 66 200 96 200 c 0
 121 200 133 178 230 90 c 1
 218 145 199 229 199 248 c 0
 199 276 228 290 250 290 c 0
 274 290 302 274 302 246 c 0
 302 231 296 215 270 90 c 1
 384 196 384 200 404 200 c 0
 434 200 457 170 457 142 c 0
 457 122 453 111 428 102 c 2
 290 54 l 1
 290 54 l 1
 435 5 457 7 457 -34 c 0
 457 -62 434 -91 404 -91 c 0
 379 -91 367 -69 270 18 c 1
 282 -33 302 -131 302 -138 c 0
 302 -166 274 -182 250 -182 c 0
 225 -182 198 -164 198 -138 c 0
 198 -122 207 -94 230 18 c 1
 117 -88 116 -91 97 -91 c 0
 66 -91 43 -62 43 -34 c 0
293 446 m 0
 293 467 309 482 322 486 c 2
 460 534 l 1
 460 534 l 1
 314 583 293 582 293 622 c 0
 293 650 316 680 346 680 c 0
 371 680 383 658 480 570 c 1
 468 625 449 709 449 728 c 0
 449 756 478 770 500 770 c 0
 524 770 552 754 552 726 c 0
 552 711 546 695 520 570 c 1
 634 676 634 680 654 680 c 0
 684 680 707 650 707 622 c 0
 707 602 703 591 678 582 c 2
 540 534 l 1
 540 534 l 1
 685 485 707 487 707 446 c 0
 707 418 684 389 654 389 c 0
 629 389 617 411 520 498 c 1
 532 447 552 349 552 342 c 0
 552 314 524 298 500 298 c 0
 475 298 448 316 448 342 c 0
 448 358 457 386 480 498 c 1
 367 392 366 389 347 389 c 0
 316 389 293 418 293 446 c 0
EndSplineSet
EndChar
StartChar: questiondbl
Encoding: 8263 8263 129
Width: 1000
VWidth: 0
Flags: MW
LayerCount: 2
Fore
SplineSet
74 657 m 1
 124 685 179 704 252 706 c 2
 264 706 l 2xd8
 419 706 470 644 470 557 c 0
 470 469 416 441 400 428 c 0
 310 355 310 284 310 250 c 2
 310 217 l 1
 204 217 l 1
 204 249 l 2
 204 410 305 479 324 511 c 0
 333 528 334 552 334 562 c 0
 334 621 315 633 260 633 c 0
 190 633 142 602 108 562 c 1
 74 657 l 1
192 0 m 1
 192 131 l 1
 322 131 l 1
 322 0 l 1
 192 0 l 1
530 657 m 1
 580 685 635 704 708 706 c 2
 720 706 l 2xd8
 875 706 926 644 926 557 c 0
 926 469 872 441 856 428 c 0
 766 355 766 284 766 250 c 2
 766 217 l 1
 660 217 l 1
 660 249 l 2
 660 410 761 479 780 511 c 0
 789 528 790 552 790 562 c 0
 790 621 771 633 716 633 c 0
 646 633 598 602 564 562 c 1
 530 657 l 1
648 0 m 1
 648 131 l 1
 778 131 l 1
 778 0 l 1
 648 0 l 1
EndSplineSet
EndChar
StartChar: questionexclam
Encoding: 8264 8264 130
Width: 1000
Flags: MW
LayerCount: 2
Fore
SplineSet
146 657 m 1
 196 685 253 704 326 706 c 2
 338 706 l 2xd8
 493 706 544 644 544 557 c 0
 544 469 488 441 472 428 c 0
 382 355 382 284 382 250 c 2
 382 217 l 1
 278 217 l 1
 278 249 l 2
 278 410 379 479 398 511 c 0
 407 528 408 552 408 562 c 0
 408 621 389 633 334 633 c 0
 264 633 216 602 182 562 c 1
 146 657 l 1
264 0 m 1
 264 131 l 1
 396 131 l 1
 396 0 l 1
 264 0 l 1
722 695 m 1xe0
 854 695 l 1xe0
 840 217 l 1
 736 217 l 1xd0
 724 652 l 5
 722 695 l 1xe0
722 0 m 1
 722 131 l 1
 854 131 l 1
 854 0 l 1
 722 0 l 1
EndSplineSet
EndChar
StartChar: asteriskdbl
Encoding: 8273 8273 132
Width: 1000
Flags: MW
LayerCount: 2
Fore
SplineSet
293 -34 m 0
 293 -13 309 2 322 6 c 2
 460 54 l 1
 460 54 l 1
 314 103 293 102 293 142 c 0
 293 170 316 200 346 200 c 0
 371 200 383 178 480 90 c 1
 468 145 449 229 449 248 c 0
 449 276 478 290 500 290 c 0
 524 290 552 274 552 246 c 0
 552 231 546 215 520 90 c 1
 634 196 634 200 654 200 c 0
 684 200 707 170 707 142 c 0
 707 122 703 111 678 102 c 2
 540 54 l 1
 540 54 l 1
 685 5 707 7 707 -34 c 0
 707 -62 684 -91 654 -91 c 0
 629 -91 617 -69 520 18 c 1
 532 -33 552 -131 552 -138 c 0
 552 -166 524 -182 500 -182 c 0
 475 -182 448 -164 448 -138 c 0
 448 -122 457 -94 480 18 c 1
 367 -88 366 -91 347 -91 c 0
 316 -91 293 -62 293 -34 c 0
293 446 m 0
 293 467 309 482 322 486 c 2
 460 534 l 1
 460 534 l 1
 314 583 293 582 293 622 c 0
 293 650 316 680 346 680 c 0
 371 680 383 658 480 570 c 1
 468 625 449 709 449 728 c 0
 449 756 478 770 500 770 c 0
 524 770 552 754 552 726 c 0
 552 711 546 695 520 570 c 1
 634 676 634 680 654 680 c 0
 684 680 707 650 707 622 c 0
 707 602 703 591 678 582 c 2
 540 534 l 1
 540 534 l 1
 685 485 707 487 707 446 c 0
 707 418 684 389 654 389 c 0
 629 389 617 411 520 498 c 1
 532 447 552 349 552 342 c 0
 552 314 524 298 500 298 c 0
 475 298 448 316 448 342 c 0
 448 358 457 386 480 498 c 1
 367 392 366 389 347 389 c 0
 316 389 293 418 293 446 c 0
EndSplineSet
EndChar
StartChar: euro
Encoding: 8364 8364 127
Width: 1000
Flags: MW
LayerCount: 2
Fore
SplineSet
139 187 m 1
 191 313 l 1
 292 313 l 1
 291 325 291 336 291 347 c 0
 291 359 291 370 292 381 c 1
 139 381 l 1
 191 508 l 1
 330 508 l 1
 379 600 484 695 637 695 c 0
 733 695 804 658 861 608 c 1
 810 484 l 1
 758 537 689 558 638 558 c 0
 590 558 543 543 501 508 c 1
 820 508 l 1
 768 381 l 1
 430 381 l 1
 428 369 427 358 427 345 c 0
 427 333 430 320 430 313 c 1
 739 313 l 1
 687 187 l 1
 501 187 l 1
 537 159 579 137 640 137 c 0
 774 137 859 218 861 218 c 1
 861 82 l 1
 806 36 731 0 638 0 c 0
 492 0 383 86 330 187 c 1
 139 187 l 1
EndSplineSet
EndChar
StartChar: celsius
Encoding: 8451 8451 119
Width: 1000
Flags: MW
LayerCount: 2
Fore
SplineSet
57 572 m 0
 57 653 107 695 179 695 c 0
 254 695 301 651 301 573 c 0
 301 491 251 450 179 450 c 0
 99 450 57 500 57 572 c 0
140 572 m 0
 140 539 160 534 181 534 c 3
 213 534 218 549 218 573 c 0xee
 218 603 203 611 181 611 c 0
 158 611 140 607 140 572 c 0
EndSplineSet
Refer: 12 67 N 1 0 0 1 118 0 2
EndChar
StartChar: mho
Encoding: 8487 8487 128
Width: 1000
Flags: MW
LayerCount: 2
Fore
SplineSet
152 587 m 1
 152 695 l 1
 446 695 l 1
 444 521 312 400 312 230 c 0
 312 122 352 50 500 50 c 0
 650 50 688 127 688 229 c 0
 688 398 556 524 554 695 c 1
 848 695 l 1
 848 587 l 1
 770 587 l 1
 652 588 l 1
 724 447 836 366 836 230 c 0
 836 -13 597 -22 494 -22 c 0
 257 -22 164 78 164 229 c 0
 164 367 276 448 348 588 c 1
 230 587 l 1
 152 587 l 1
EndSplineSet
EndChar
StartChar: angstrom
Encoding: 8491 8491 120
Width: 1000
Flags: MW
LayerCount: 2
Fore
SplineSet
378 781 m 0
 378 843 403 903 502 903 c 0
 572 903 622 870 622 779 c 0
 622 716 598 657 500 657 c 0
 429 657 378 689 378 781 c 0
440 780 m 0
 440 758 445 745 454 738 c 0
 464 729 480 729 498 729 c 2
 498 729 l 2
 518 730 538 730 550 741 c 0
 557 748 562 759 562 779 c 0
 562 800 558 812 550 819 c 0
 539 829 522 830 502 830 c 2xdf
 500 830 l 2
 477 830 462 829 452 820 c 0
 444 813 440 800 440 780 c 0
EndSplineSet
Refer: 10 65 N 1 0 0 1 0 0 2
EndChar
StartChar: aleph
Encoding: 8501 8501 264
Width: 1000
Flags: W
LayerCount: 2
Fore
SplineSet
655 694 m 1
 790 694 l 1
 743 485 l 2
 719 380 685 304 637 256 c 1
 809 0 l 1
 659 0 l 1
 430 339 l 1
 418 331 407 318 398 298 c 128
 389 278 379 246 369 200 c 2
 326 0 l 1
 191 0 l 1
 238 208 l 2
 263 321 302 401 356 449 c 1
 191 694 l 1
 341 694 l 1
 563 365 l 1
 581 381 597 424 612 493 c 2
 655 694 l 1
EndSplineSet
Colour: ff
EndChar
StartChar: arrowboth
Encoding: 8596 8596 269
Width: 1000
Flags: W
LayerCount: 2
Fore
SplineSet
60 264 m 1
 157 305 238 393 262 514 c 1
 346 514 l 1
 332 435 297 369 245 305 c 1
 753 305 l 1
 700 369 666 435 652 514 c 1
 735 514 l 1
 773 324 937 265 938 263 c 1
 840 222 759 135 735 14 c 1
 652 14 l 1
 666 92 701 158 753 222 c 1
 245 222 l 1
 291 165 330 101 346 14 c 1
 262 14 l 1
 225 203 61 263 60 264 c 1
EndSplineSet
EndChar
StartChar: arrowdblright
Encoding: 8658 8658 267
Width: 1000
Flags: W
LayerCount: 2
Fore
SplineSet
60 163 m 0
 60 198 85 205 115 205 c 2
 739 205 l 1
 759 231 779 250 794 263 c 1
 778 276 758 296 738 322 c 1
 115 322 l 2
 83 322 60 334 60 363 c 0
 60 398 85 405 115 405 c 2
 688 405 l 1
 663 458 644 523 643 600 c 1
 723 600 l 1
 731 409 840 304 938 263 c 1
 840 222 727 126 719 -100 c 1
 639 -100 l 1
 640 -8 661 65 688 122 c 1
 115 122 l 2
 83 122 60 134 60 163 c 0
EndSplineSet
EndChar
StartChar: arrowdblboth
Encoding: 8660 8660 268
Width: 1000
Flags: W
LayerCount: 2
Fore
SplineSet
60 263 m 1
 158 304 267 409 275 600 c 1
 355 600 l 1
 354 523 335 458 310 405 c 1
 688 405 l 1
 663 458 644 523 643 600 c 1
 723 600 l 1
 731 409 840 304 938 263 c 1
 840 222 727 126 719 -100 c 1
 639 -100 l 1
 640 -8 661 65 688 122 c 1
 310 122 l 1
 337 65 358 -8 359 -100 c 1
 279 -100 l 1
 271 126 158 222 60 263 c 1
204 263 m 1
 219 250 239 231 259 205 c 1
 739 205 l 1
 759 231 779 250 794 263 c 1
 778 276 758 296 738 322 c 1
 260 322 l 1
 240 296 220 276 204 263 c 1
EndSplineSet
EndChar
StartChar: universal
Encoding: 8704 8704 226
Width: 1000
Flags: W
LayerCount: 2
Fore
SplineSet
149 550 m 0
 149 569 166 584 185 584 c 0
 211 584 223 557 227 548 c 2
 306 399 l 1
 695 399 l 1
 773 548 l 2
 780 561 790 584 815 584 c 0
 834 584 851 569 851 550 c 0
 851 540 847 532 843 524 c 2
 543 -48 l 2
 536 -61 526 -84 501 -84 c 0
 477 -84 466 -63 459 -50 c 2
 157 524 l 2
 153 532 149 540 149 550 c 0
344 326 m 1
 501 28 l 1
 519 64 l 1
 656 326 l 1
 344 326 l 1
EndSplineSet
EndChar
StartChar: partialdiff
Encoding: 8706 8706 230
Width: 1000
Flags: W
LayerCount: 2
Fore
SplineSet
245 163 m 0
 245 282 297 380 349 426 c 0
 403 474 472 489 540 489 c 0
 552 489 565 489 578 488 c 1
 539 554 470 606 390 627 c 1
 482 695 l 1
 635 651 755 531 755 349 c 0
 755 238 724 133 668 70 c 0
 624 20 557 -11 453 -11 c 0
 363 -11 308 13 278 52 c 0
 254 82 245 121 245 163 c 0
381 156 m 0
 381 130 385 109 397 94 c 0
 410 77 431 67 467 67 c 0
 502 67 528 76 549 96 c 0
 586 132 616 238 616 324 c 0
 616 347 612 369 600 386 c 0
 587 404 565 416 528 416 c 0
 485 416 457 401 438 378 c 0
 400 332 381 229 381 156 c 0
EndSplineSet
EndChar
StartChar: existential
Encoding: 8707 8707 227
Width: 1000
Flags: W
LayerCount: 2
Fore
SplineSet
184 -8 m 0
 184 20 212 28 227 28 c 2
 237 28 l 1
 744 28 l 1
 744 233 l 1
 228 233 l 2
 205 233 184 243 184 269 c 0
 184 297 212 305 227 305 c 2
 237 305 l 1
 744 305 l 1
 744 511 l 1
 227 511 l 2
 204 511 184 520 184 547 c 0
 184 582 216 584 229 584 c 2
 780 584 l 2
 801 584 816 569 816 547 c 2
 816 -8 l 2
 816 -29 801 -44 780 -44 c 2
 228 -44 l 2
 205 -44 184 -34 184 -8 c 0
EndSplineSet
EndChar
StartChar: emptyset
Encoding: 8709 8709 252
Width: 1000
Flags: W
LayerCount: 2
Fore
SplineSet
153 250 m 0
 153 441 309 597 500 597 c 0
 579 597 651 570 709 526 c 1
 776 593 l 2
 784 601 795 610 809 610 c 0
 825 610 844 591 844 575 c 0
 844 559 837 552 826 542 c 2
 762 477 l 1
 815 416 847 337 847 250 c 0
 847 59 691 -96 500 -96 c 0
 413 -96 334 -65 273 -12 c 1
 222 -63 l 2
 213 -72 201 -80 187 -80 c 0
 172 -80 154 -60 154 -46 c 0
 154 -22 171 -12 177 -6 c 2
 224 41 l 1
 180 99 153 171 153 250 c 0
227 250 m 0
 227 192 245 137 276 93 c 1
 657 474 l 1
 613 505 559 524 500 524 c 0
 349 524 227 401 227 250 c 0
325 40 m 1
 372 1 433 -23 500 -23 c 0
 651 -23 773 99 773 250 c 0
 773 316 749 377 710 425 c 1
 325 40 l 1
EndSplineSet
EndChar
StartChar: nabla
Encoding: 8711 8711 231
Width: 1000
Flags: W
LayerCount: 2
Fore
SplineSet
912 692 m 1
 595 -3 l 1
 404 -3 l 1
 88 692 l 5
 912 692 l 1
711 559 m 1
 311 559 l 1
 511 121 l 1
 711 559 l 1
EndSplineSet
EndChar
StartChar: element
Encoding: 8712 8712 212
Width: 1000
Flags: W
LayerCount: 2
Fore
SplineSet
166 250 m 0
 166 441 321 597 512 597 c 2
 790 597 l 2
 831 597 834 569 834 560 c 0
 834 546 826 524 786 524 c 2
 512 524 l 2
 373 524 260 420 242 286 c 1
 790 286 l 2
 800 286 811 284 820 279 c 0
 828 274 834 265 834 250 c 0
 834 235 828 226 820 221 c 0
 807 213 790 215 790 214 c 2
 242 214 l 1
 260 80 373 -23 512 -23 c 2
 790 -23 l 2
 831 -23 834 -51 834 -60 c 0
 834 -74 826 -96 786 -96 c 2
 512 -96 l 2
 321 -96 166 59 166 250 c 0
EndSplineSet
EndChar
StartChar: notelement
Encoding: 8713 8713 251
Width: 1000
Flags: W
LayerCount: 2
Fore
SplineSet
166 250 m 0
 166 441 321 597 512 597 c 2
 620 597 l 1
 644 658 l 2
 649 671 659 704 688 704 c 0
 707 704 724 690 724 668 c 0
 724 658 719 649 716 641 c 2
 700 597 l 1
 790 597 l 2
 831 597 834 569 834 560 c 0
 834 546 826 524 786 524 c 2
 670 524 l 1
 578 286 l 1
 790 286 l 2
 800 286 811 284 820 279 c 0
 828 274 834 265 834 250 c 0
 834 235 828 226 820 221 c 0
 807 213 790 215 790 214 c 2
 550 214 l 1
 458 -18 l 1
 476 -22 493 -23 512 -23 c 2
 790 -23 l 2
 831 -23 834 -51 834 -60 c 0
 834 -74 826 -96 786 -96 c 2
 512 -96 l 2
 484 -96 458 -92 432 -86 c 1
 402 -159 l 2
 395 -177 387 -208 358 -208 c 0
 341 -208 322 -194 322 -172 c 0
 322 -161 327 -151 330 -142 c 2
 362 -62 l 1
 246 -6 166 113 166 250 c 0
242 214 m 1
 254 123 309 46 388 6 c 1
 470 214 l 1
 242 214 l 1
242 286 m 1
 498 286 l 1
 592 524 l 1
 512 524 l 2
 373 524 260 420 242 286 c 1
EndSplineSet
EndChar
StartChar: suchthat
Encoding: 8715 8715 213
Width: 1000
Flags: W
LayerCount: 2
Fore
SplineSet
166 -60 m 0
 166 -51 169 -23 210 -23 c 2
 488 -23 l 2
 627 -23 740 80 758 214 c 1
 210 214 l 2
 199 214 185 217 176 224 c 0
 169 229 166 237 166 250 c 0
 166 264 171 272 178 277 c 0
 191 287 208 285 208 286 c 2
 218 286 l 1
 758 286 l 1
 740 420 627 524 488 524 c 2
 214 524 l 2
 174 524 166 546 166 560 c 0
 166 569 169 597 210 597 c 2
 488 597 l 2
 679 597 834 441 834 250 c 0
 834 59 679 -96 488 -96 c 2
 214 -96 l 2
 174 -96 166 -74 166 -60 c 0
EndSplineSet
EndChar
StartChar: minus
Encoding: 8722 8722 117
Width: 1000
Flags: MW
LayerCount: 2
Fore
SplineSet
226 263 m 0
 226 277 234 300 269 300 c 2
 729 300 l 2
 770 300 774 274 774 264 c 0
 774 251 767 227 729 227 c 2
 269 227 l 2
 230 228 226 254 226 263 c 0
EndSplineSet
EndChar
StartChar: minusplus
Encoding: 8723 8723 244
Width: 1000
Flags: W
LayerCount: 2
Fore
SplineSet
134 566 m 0
 134 578 138 608 186 608 c 2
 810 608 l 2
 823 608 837 608 848 600 c 0
 859 592 866 580 866 567 c 0
 866 553 858 539 846 531 c 0
 835 525 823 524 808 524 c 2
 542 524 l 1
 542 283 l 1
 812 283 l 2
 857 283 866 258 866 241 c 0
 866 225 857 200 812 200 c 2
 542 200 l 1
 542 -71 l 2
 542 -116 516 -125 500 -125 c 0
 488 -125 458 -120 458 -72 c 2
 458 200 l 1
 188 200 l 2
 143 200 134 225 134 242 c 0
 134 258 143 283 188 283 c 2
 458 283 l 1
 458 524 l 1
 186 524 l 2
 141 524 134 551 134 566 c 0
EndSplineSet
EndChar
StartChar: radical
Encoding: 8730 8730 234
Width: 1000
Flags: W
LayerCount: 2
Fore
SplineSet
23 126 m 1
 175 354 l 1
 210 152 l 1
 384 730 l 2
 396 770 416 778 441 778 c 2
 1015 778 l 2
 1053 778 1064 759 1064 737 c 3
 1064 710 1045 695 1000 695 c 2
 461 695 l 1
 243 -28 l 2
 231 -66 216 -69 188 -69 c 2
 158 -69 l 1
 120 143 l 1
 75 75 l 1
 23 126 l 1
EndSplineSet
EndChar
StartChar: proportional
Encoding: 8733 8733 258
Width: 1000
Flags: W
LayerCount: 2
Fore
SplineSet
214 250 m 0
 214 353 297 436 400 436 c 0
 461 436 516 407 550 361 c 1
 584 407 638 436 699 436 c 2
 749 436 l 2
 769 436 786 420 786 400 c 0
 786 380 769 363 749 363 c 2
 699 363 l 2
 637 363 586 312 586 250 c 0
 586 188 637 137 699 137 c 2
 749 137 l 2
 769 137 786 120 786 100 c 0
 786 80 769 64 749 64 c 2
 699 64 l 2
 638 64 584 93 550 139 c 1
 516 93 461 64 400 64 c 0
 297 64 214 147 214 250 c 0
287 250 m 0
 287 188 338 137 400 137 c 0
 462 137 513 188 513 250 c 0
 513 312 462 363 400 363 c 0
 338 363 287 312 287 250 c 0
EndSplineSet
EndChar
StartChar: infinity
Encoding: 8734 8734 210
Width: 1000
Flags: W
LayerCount: 2
Fore
SplineSet
116 348 m 0
 116 519 228 576 326 576 c 0xec
 420 576 459 506 486 452 c 1
 510 539 574 576 660 576 c 0
 772 576 884 531 884 348 c 0
 884 165 771 118 660 118 c 0xf2
 574 118 510 155 486 242 c 1
 462 183 414 120 324 120 c 0
 227 120 116 177 116 348 c 0
206 348 m 0
 206 270 262 248 328 248 c 0
 400 248 450 275 450 346 c 0
 450 421 393 448 326 448 c 0
 253 448 206 421 206 348 c 0
522 348 m 0
 522 261 596 258 660 258 c 0
 736 258 788 265 788 346 c 0
 788 434 718 438 652 438 c 0
 573 438 522 427 522 348 c 0
EndSplineSet
EndChar
StartChar: orthogonal
Encoding: 8735 8735 245
Width: 1000
Flags: W
LayerCount: 2
Fore
SplineSet
184 -48 m 2
 184 540 l 2
 184 564 193 584 220 584 c 0
 248 584 256 556 256 539 c 2
 256 -12 l 1
 772 -12 l 2
 796 -12 816 -21 816 -48 c 0
 816 -76 789 -84 771 -84 c 2
 220 -84 l 2
 197 -84 184 -69 184 -48 c 2
EndSplineSet
EndChar
StartChar: parallel
Encoding: 8741 8741 262
Width: 1000
Flags: W
LayerCount: 2
Fore
SplineSet
578 -65 m 2
 578 565 l 2
 578 588 582 616 614 616 c 0
 649 616 652 576 652 565 c 2
 652 -65 l 2
 652 -91 644 -116 616 -116 c 0
 580 -116 578 -71 578 -65 c 2
348 -65 m 2
 348 565 l 2
 348 588 352 616 384 616 c 0
 419 616 422 576 422 565 c 2
 422 -65 l 2
 422 -91 414 -116 386 -116 c 0
 350 -116 348 -71 348 -65 c 2
EndSplineSet
EndChar
StartChar: notparallel
Encoding: 8742 8742 263
Width: 1000
Flags: W
LayerCount: 2
Fore
SplineSet
134 57 m 0
 134 80 160 97 164 99 c 2
 348 205 l 1
 348 565 l 2
 348 588 352 616 384 616 c 0
 419 616 422 576 422 565 c 2
 422 248 l 1
 578 338 l 1
 578 565 l 2
 578 588 582 616 614 616 c 0
 649 616 652 576 652 565 c 2
 652 381 l 1
 798 465 l 2
 809 471 821 477 833 477 c 0
 847 477 866 462 866 442 c 0
 866 421 843 405 835 401 c 2
 652 295 l 1
 652 -65 l 2
 652 -91 644 -116 616 -116 c 0
 580 -116 578 -71 578 -65 c 2
 578 253 l 1
 422 162 l 1
 422 -65 l 2
 422 -91 414 -116 386 -116 c 0
 350 -116 348 -71 348 -65 c 2
 348 119 l 1
 201 34 l 2
 190 28 178 23 167 23 c 0
 152 23 134 38 134 57 c 0
EndSplineSet
EndChar
StartChar: logicaland
Encoding: 8743 8743 224
Width: 1000
Flags: W
LayerCount: 2
Fore
SplineSet
501 584 m 3
 525 584 534 561 541 548 c 2
 843 -24 l 2
 847 -32 851 -41 851 -50 c 0
 851 -69 834 -84 815 -84 c 0
 789 -84 779 -57 775 -48 c 2
 501 472 l 1
 483 436 l 1
 227 -48 l 2
 222 -57 210 -84 185 -84 c 0
 166 -84 149 -69 149 -50 c 0
 149 -41 153 -32 157 -24 c 2
 459 548 l 2
 466 561 476 584 501 584 c 3
EndSplineSet
EndChar
StartChar: integral
Encoding: 8747 8747 236
Width: 1000
Flags: W
LayerCount: 2
Fore
SplineSet
182 -148 m 1
 224 -76 l 1
 246 -87 262 -93 292 -93 c 0
 350 -93 359 -75 364 -53 c 2
 475 472 l 2
 487 526 493 573 516 612 c 0
 524 625 534 638 547 650 c 0
 572 673 623 706 729 706 c 0
 766 706 786 702 818 695 c 1
 797 594 l 1
 784 608 766 633 712 633 c 0
 660 633 641 615 629 576 c 0
 621 550 616 516 606 472 c 2
 503 -28 l 2
 497 -58 489 -91 470 -119 c 4
 446 -153 404 -178 325 -178 c 0
 268 -178 227 -168 182 -148 c 1
EndSplineSet
EndChar
StartChar: integraldbl
Encoding: 8748 8748 237
Width: 1000
Flags: W
LayerCount: 2
Fore
SplineSet
14 -148 m 1
 56 -76 l 1
 78 -87 94 -93 124 -93 c 0
 182 -93 191 -75 196 -53 c 2
 307 472 l 2
 319 526 325 573 348 612 c 0
 356 625 366 638 379 650 c 0
 404 673 455 706 561 706 c 0
 598 706 618 702 650 695 c 1
 629 594 l 1
 616 608 598 633 544 633 c 0
 492 633 473 615 461 576 c 0
 453 550 448 516 438 472 c 2
 335 -28 l 2
 329 -58 321 -91 302 -119 c 4
 278 -153 236 -178 157 -178 c 0
 100 -178 59 -168 14 -148 c 1
350 -148 m 1
 392 -76 l 1
 414 -87 430 -93 460 -93 c 0
 518 -93 527 -75 532 -53 c 2
 643 472 l 2
 655 526 661 573 684 612 c 0
 692 625 702 638 715 650 c 0
 740 673 791 706 897 706 c 0
 934 706 954 702 986 695 c 1
 965 594 l 1
 952 608 934 633 880 633 c 0
 828 633 809 615 797 576 c 0
 789 550 784 516 774 472 c 2
 671 -28 l 2
 665 -58 657 -91 638 -119 c 4
 614 -153 572 -178 493 -178 c 0
 436 -178 395 -168 350 -148 c 1
EndSplineSet
EndChar
StartChar: integraltrpl
Encoding: 8749 8749 248
Width: 1000
Flags: W
LayerCount: 2
Fore
SplineSet
-91 -148 m 1
 -55 -76 l 1
 -32 -87 -16 -93 14 -93 c 0
 72 -93 80 -75 83 -53 c 2
 148 472 l 2
 155 526 156 573 176 612 c 0
 183 625 192 638 204 650 c 0
 227 673 275 706 381 706 c 0
 418 706 438 702 471 695 c 1
 459 594 l 1
 445 608 425 633 371 633 c 0
 319 633 302 615 293 576 c 0
 287 550 285 516 279 472 c 2
 219 -28 l 2
 216 -58 211 -91 194 -119 c 0
 173 -153 134 -178 55 -178 c 0
 -2 -178 -44 -168 -91 -148 c 1
195 -148 m 1
 231 -76 l 1
 254 -87 270 -93 300 -93 c 0
 358 -93 366 -75 369 -53 c 2
 434 472 l 2
 441 526 442 573 462 612 c 0
 469 625 478 638 490 650 c 0
 513 673 561 706 667 706 c 0
 704 706 724 702 757 695 c 1
 745 594 l 1
 731 608 711 633 657 633 c 0
 605 633 588 615 579 576 c 0
 573 550 571 516 565 472 c 2
 505 -28 l 2
 502 -58 497 -91 480 -119 c 0
 459 -153 420 -178 341 -178 c 0
 284 -178 242 -168 195 -148 c 1
481 -148 m 1
 517 -76 l 1
 540 -87 556 -93 586 -93 c 0
 644 -93 652 -75 655 -53 c 2
 720 472 l 2
 727 526 728 573 748 612 c 0
 755 625 764 638 776 650 c 0
 799 673 847 706 953 706 c 0
 990 706 1010 702 1043 695 c 1
 1031 594 l 1
 1017 608 997 633 943 633 c 0
 891 633 874 615 865 576 c 0
 859 550 857 516 851 472 c 2
 791 -28 l 2
 788 -58 783 -91 766 -119 c 0
 745 -153 706 -178 627 -178 c 0
 570 -178 528 -168 481 -148 c 1
EndSplineSet
EndChar
StartChar: contourintegral
Encoding: 8750 8750 257
Width: 1000
Flags: W
LayerCount: 2
Fore
SplineSet
219 -148 m 1
 255 -76 l 1
 278 -87 294 -93 324 -93 c 0
 382 -93 390 -75 393 -53 c 2
 408 69 l 1
 329 104 273 183 273 275 c 0
 273 386 355 479 461 497 c 1
 466 541 470 579 487 612 c 0
 494 625 502 638 514 650 c 0
 537 673 585 706 691 706 c 0
 728 706 748 702 781 695 c 1
 769 594 l 1
 755 608 735 633 681 633 c 0
 629 633 612 615 603 576 c 0
 597 552 595 520 590 480 c 1
 668 445 723 366 723 275 c 0
 723 165 644 74 540 54 c 1
 530 -28 l 2
 526 -58 521 -91 504 -119 c 0
 483 -153 444 -178 365 -178 c 0
 308 -178 266 -168 219 -148 c 1
335 275 m 0
 335 214 367 161 416 133 c 1
 453 433 l 1
 385 413 335 350 335 275 c 0
547 118 m 1
 614 138 663 201 663 275 c 0
 663 335 630 388 582 416 c 1
 547 118 l 1
EndSplineSet
EndChar
StartChar: therefore
Encoding: 8756 8756 211
Width: 1000
Flags: W
LayerCount: 2
Fore
SplineSet
605 0 m 1
 605 131 l 1
 736 131 l 1
 736 0 l 1
 605 0 l 1
434 341 m 1
 434 472 l 1
 565 472 l 1
 565 341 l 1
 434 341 l 1
264 0 m 1
 264 131 l 1
 395 131 l 1
 395 0 l 1
 264 0 l 1
EndSplineSet
EndChar
StartChar: because
Encoding: 8757 8757 235
Width: 1000
Flags: W
LayerCount: 2
Fore
SplineSet
605 341 m 1
 605 472 l 1
 736 472 l 1
 736 341 l 1
 605 341 l 1
264 341 m 1
 264 472 l 1
 395 472 l 1
 395 341 l 1
 264 341 l 1
434 0 m 1
 434 131 l 1
 565 131 l 1
 565 0 l 1
 434 0 l 1
EndSplineSet
EndChar
StartChar: reversedtilde
Encoding: 8765 8765 259
Width: 1000
Flags: W
LayerCount: 2
Fore
SplineSet
164 250 m 0
 164 353 247 436 350 436 c 0
 370 436 386 420 386 400 c 0
 386 380 370 363 350 363 c 0
 288 363 238 312 238 250 c 0
 238 188 288 137 350 137 c 0
 412 137 464 188 464 250 c 0
 464 353 547 436 650 436 c 0
 753 436 836 353 836 250 c 0
 836 147 753 64 650 64 c 0
 630 64 612 80 612 100 c 0
 612 120 630 137 650 137 c 0
 712 137 762 188 762 250 c 0
 762 312 712 363 650 363 c 0
 588 363 536 312 536 250 c 0
 536 147 453 64 350 64 c 0
 247 64 164 147 164 250 c 0
EndSplineSet
EndChar
StartChar: asymptequal
Encoding: 8771 8771 239
Width: 1000
Flags: W
LayerCount: 2
Fore
SplineSet
134 135 m 0
 134 153 149 168 166 171 c 0
 174 172 183 172 192 172 c 2
 820 172 l 2
 861 172 866 144 866 135 c 0
 866 121 858 99 818 99 c 2
 182 99 l 2
 141 99 134 121 134 135 c 0
144 328 m 1x58
 147 408 283 457 358 457 c 0x38
 458 457 570 401 632 401 c 0x58
 647 401 764 407 770 457 c 1x98
 842 457 l 1x38
 839 376 705 328 630 328 c 0x58
 532 328 417 384 356 384 c 0x38
 340 384 223 378 218 328 c 1x98
 144 328 l 1x58
EndSplineSet
EndChar
StartChar: congruent
Encoding: 8773 8773 240
Width: 1000
Flags: W
LayerCount: 2
Fore
SplineSet
134 35 m 0
 134 53 149 68 166 71 c 0
 174 72 183 72 192 72 c 2
 820 72 l 2
 861 72 866 44 866 35 c 0
 866 21 858 -1 818 -1 c 2
 182 -1 l 2
 141 -1 134 21 134 35 c 0
134 235 m 0
 134 253 149 268 166 271 c 0
 174 272 183 272 192 272 c 2
 820 272 l 2
 861 272 866 244 866 235 c 0
 866 221 858 199 818 199 c 2
 182 199 l 2
 141 199 134 221 134 235 c 0
144 428 m 1x58
 147 508 283 557 358 557 c 0x38
 458 557 570 501 632 501 c 0x58
 647 501 764 507 770 557 c 1x98
 842 557 l 1x38
 839 476 705 428 630 428 c 0x58
 532 428 417 484 356 484 c 0x38
 340 484 223 478 218 428 c 1x98
 144 428 l 1x58
EndSplineSet
EndChar
StartChar: approxequal
Encoding: 8776 8776 241
Width: 1000
Flags: W
LayerCount: 2
Fore
SplineSet
151 78 m 1x58
 154 158 289 207 364 207 c 0x38
 464 207 577 151 639 151 c 0x58
 654 151 771 157 777 207 c 1x98
 849 207 l 1x38
 846 126 711 78 636 78 c 0x58
 538 78 423 134 362 134 c 0x38
 346 134 229 128 224 78 c 1x98
 151 78 l 1x58
151 328 m 1x58
 154 408 289 457 364 457 c 0x38
 464 457 577 401 639 401 c 0x58
 654 401 771 407 777 457 c 1x98
 849 457 l 1x38
 846 376 711 328 636 328 c 0x58
 538 328 423 384 362 384 c 0x38
 346 384 229 378 224 328 c 1x98
 151 328 l 1x58
EndSplineSet
EndChar
StartChar: approxequalorimage
Encoding: 8786 8786 126
Width: 1000
Flags: MW
LayerCount: 2
Fore
SplineSet
226 382 m 0
 226 395 231 403 237 408 c 0
 250 419 270 418 271 419 c 1
 729 419 l 1
 741 417 754 415 763 408 c 0
 770 403 774 395 774 382 c 0
 774 368 769 360 762 355 c 0
 749 345 731 347 730 346 c 1
 269 346 l 2
 258 347 245 349 236 356 c 0
 230 361 226 369 226 382 c 0
226 145 m 0
 226 159 231 167 238 172 c 0
 251 182 269 180 269 181 c 1
 279 181 l 1
 730 181 l 2
 740 180 751 179 760 174 c 0
 768 169 774 160 774 145 c 0
 774 130 767 121 759 116 c 0
 746 108 729 110 729 109 c 1
 270 109 l 2
 259 110 246 112 237 119 c 0
 230 124 226 132 226 145 c 0
494 -151 m 2
 494 -39 l 2
 494 8 528 11 542 11 c 2
 660 11 l 2
 705 11 708 -21 708 -41 c 2
 708 -153 l 2
 708 -180 697 -203 658 -203 c 2
 542 -203 l 2
 501 -203 494 -176 494 -151 c 2
294 568 m 2
 294 680 l 2
 294 727 327 730 342 730 c 2
 462 730 l 2
 503 730 508 700 508 678 c 2
 508 566 l 2
 508 539 497 516 458 516 c 2
 340 516 l 2
 300 516 294 543 294 568 c 2
EndSplineSet
EndChar
StartChar: notequal
Encoding: 8800 8800 122
Width: 1000
Flags: MW
LayerCount: 2
Fore
SplineSet
311 -72 m 0
 311 -61 316 -51 319 -42 c 2
 378 109 l 1
 178 109 l 2
 167 110 154 112 145 119 c 0
 138 124 134 132 134 145 c 0
 134 159 139 167 146 172 c 0
 159 182 177 180 177 181 c 2
 187 181 l 1
 407 181 l 1
 472 346 l 1
 177 346 l 2
 166 347 153 349 144 356 c 0
 138 361 134 369 134 382 c 0
 134 395 139 403 145 408 c 0
 158 419 178 418 179 419 c 2
 500 419 l 1
 555 558 l 2
 560 571 569 604 598 604 c 0
 617 604 634 590 634 568 c 0
 634 558 630 549 627 541 c 2
 579 419 l 1
 821 419 l 2
 833 417 846 415 855 408 c 0
 862 403 866 395 866 382 c 0
 866 368 861 360 854 355 c 0
 841 345 823 347 822 346 c 2
 550 346 l 1
 485 181 l 1
 822 181 l 2
 832 180 843 179 852 174 c 0
 860 169 866 160 866 145 c 0
 866 130 859 121 851 116 c 0
 838 108 821 110 821 109 c 2
 457 109 l 1
 391 -59 l 2
 386 -70 382 -87 371 -98 c 0
 366 -103 360 -107 352 -108 c 0
 350 -108 349 -108 347 -108 c 0
 330 -108 311 -94 311 -72 c 0
EndSplineSet
EndChar
StartChar: equivalence
Encoding: 8801 8801 125
Width: 1000
Flags: MW
LayerCount: 2
Fore
SplineSet
226 65 m 0
 226 79 231 87 238 92 c 0
 251 102 269 100 269 101 c 1
 279 101 l 1
 730 101 l 2
 740 100 751 99 760 94 c 0
 768 89 774 80 774 65 c 0
 774 50 767 41 759 36 c 0
 746 28 729 30 729 29 c 1
 270 29 l 2
 259 30 246 32 237 39 c 0
 230 44 226 52 226 65 c 0
226 462 m 0
 226 475 231 483 237 488 c 0
 250 499 270 498 271 499 c 1
 729 499 l 1
 741 497 754 495 763 488 c 0
 770 483 774 475 774 462 c 0
 774 448 769 440 762 435 c 0
 749 425 731 427 730 426 c 1
 269 426 l 2
 258 427 245 429 236 436 c 0
 230 441 226 449 226 462 c 0
226 265 m 0
 226 279 231 287 238 292 c 0
 251 302 269 300 269 301 c 1
 279 301 l 1
 730 301 l 2
 740 300 751 299 760 294 c 0
 768 289 774 280 774 265 c 0
 774 250 767 241 759 236 c 0
 746 228 729 230 729 229 c 1
 270 229 l 2
 259 230 246 232 237 239 c 0
 230 244 226 252 226 265 c 0
EndSplineSet
EndChar
StartChar: notequivalence
Encoding: 8802 8802 238
Width: 1000
Flags: W
LayerCount: 2
Fore
SplineSet
134 65 m 0
 134 79 139 87 146 92 c 0
 159 102 177 100 177 101 c 2
 187 101 l 1
 375 101 l 1
 426 229 l 1
 178 229 l 2
 167 229 154 232 145 239 c 0
 138 244 134 252 134 265 c 0
 134 279 139 287 146 292 c 0
 159 302 177 300 177 301 c 2
 187 301 l 1
 454 301 l 1
 503 426 l 1
 177 426 l 2
 166 426 153 429 144 436 c 0
 138 441 134 449 134 462 c 0
 134 475 139 483 145 488 c 0
 158 499 178 498 179 499 c 2
 532 499 l 1
 555 558 l 2
 560 571 569 604 598 604 c 0
 617 604 634 590 634 568 c 0
 634 558 630 549 627 541 c 2
 610 499 l 1
 821 499 l 2
 833 497 846 495 855 488 c 0
 862 483 866 475 866 462 c 0
 866 448 861 440 854 435 c 0
 841 425 823 427 822 426 c 2
 582 426 l 1
 533 301 l 1
 822 301 l 2
 832 301 843 299 852 294 c 0
 860 289 866 280 866 265 c 0
 866 250 859 241 851 236 c 0
 838 228 821 230 821 229 c 2
 504 229 l 1
 454 101 l 1
 822 101 l 2
 832 101 843 99 852 94 c 0
 860 89 866 80 866 65 c 0
 866 50 859 41 851 36 c 0
 838 28 821 30 821 29 c 2
 426 29 l 1
 391 -59 l 2
 384 -77 376 -108 347 -108 c 0
 330 -108 311 -94 311 -72 c 0
 311 -61 316 -51 319 -42 c 2
 347 29 l 1
 178 29 l 2
 167 29 154 32 145 39 c 0
 138 44 134 52 134 65 c 0
EndSplineSet
EndChar
StartChar: lessoverequal
Encoding: 8806 8806 123
Width: 1000
Flags: MW
LayerCount: 2
Fore
SplineSet
226 -101 m 0
 226 -87 231 -79 238 -74 c 0
 251 -64 269 -66 269 -65 c 1
 279 -65 l 1
 730 -65 l 2
 740 -66 751 -67 760 -72 c 0
 768 -77 774 -86 774 -101 c 0
 774 -116 767 -125 759 -130 c 0
 746 -138 729 -136 729 -137 c 1
 270 -137 l 2
 259 -136 246 -134 237 -127 c 0
 230 -122 226 -114 226 -101 c 0
256 393 m 1
 258 407 254 417 284 434 c 2
 677 651 l 2
 684 655 694 664 708 664 c 0
 726 664 744 650 744 629 c 0
 744 610 732 600 721 593 c 2
 351 393 l 1
 372 379 389 370 411 358 c 2
 721 195 l 2
 730 190 744 178 744 159 c 0
 744 137 726 123 708 123 c 0
 696 123 689 130 678 136 c 2
 285 353 l 2
 249 376 259 385 256 393 c 1
226 59 m 0
 226 73 231 81 238 86 c 0
 251 96 269 94 269 95 c 1
 279 95 l 1
 730 95 l 2
 740 94 751 93 760 88 c 0
 768 83 774 74 774 59 c 0
 774 44 767 35 759 30 c 0
 746 22 729 24 729 23 c 1
 270 23 l 2
 259 24 246 26 237 33 c 0
 230 38 226 46 226 59 c 0
EndSplineSet
EndChar
StartChar: greateroverequal
Encoding: 8807 8807 124
Width: 1000
Flags: MW
LayerCount: 2
Fore
SplineSet
226 -101 m 0
 226 -87 231 -79 238 -74 c 0
 251 -64 269 -66 269 -65 c 1
 279 -65 l 1
 730 -65 l 2
 740 -66 751 -67 760 -72 c 0
 768 -77 774 -86 774 -101 c 0
 774 -116 767 -125 759 -130 c 0
 746 -138 729 -136 729 -137 c 1
 270 -137 l 2
 259 -136 246 -134 237 -127 c 0
 230 -122 226 -114 226 -101 c 0
256 159 m 0
 256 177 266 188 279 195 c 2
 649 394 l 1
 629 408 611 417 590 428 c 2
 279 592 l 2
 262 602 256 614 256 629 c 0
 256 650 274 664 293 664 c 0
 305 664 311 658 322 651 c 2
 716 434 l 2
 743 419 744 401 744 394 c 1
 743 381 745 373 716 354 c 2
 323 136 l 2
 312 130 305 123 293 123 c 0
 274 123 256 137 256 159 c 0
226 59 m 0
 226 73 231 81 238 86 c 0
 251 96 269 94 269 95 c 1
 279 95 l 1
 730 95 l 2
 740 94 751 93 760 88 c 0
 768 83 774 74 774 59 c 0
 774 44 767 35 759 30 c 0
 746 22 729 24 729 23 c 1
 270 23 l 2
 259 24 246 26 237 33 c 0
 230 38 226 46 226 59 c 0
EndSplineSet
EndChar
StartChar: muchless
Encoding: 8810 8810 232
Width: 1000
Flags: W
LayerCount: 2
Fore
SplineSet
441 263 m 1
 443 277 442 282 469 304 c 2
 842 611 l 2
 848 616 859 624 873 624 c 0
 891 624 909 610 909 589 c 0
 909 570 897 561 886 553 c 2
 536 263 l 1
 886 -25 l 18
 894 -31 909 -42 909 -61 c 0
 909 -83 891 -97 873 -97 c 0
 861 -97 853 -92 843 -84 c 2
 470 223 l 2
 437 250 444 255 441 263 c 1
91 263 m 1
 93 277 92 282 119 304 c 2
 492 611 l 2
 498 616 509 624 523 624 c 0
 541 624 559 610 559 589 c 0
 559 570 547 561 536 553 c 2
 186 263 l 1
 536 -25 l 18
 544 -31 559 -42 559 -61 c 0
 559 -83 541 -97 523 -97 c 0
 511 -97 503 -92 493 -84 c 2
 120 223 l 2
 87 250 94 255 91 263 c 1
EndSplineSet
EndChar
StartChar: muchgreater
Encoding: 8811 8811 233
Width: 1000
Flags: W
LayerCount: 2
Fore
SplineSet
441 -61 m 0
 441 -42 456 -31 464 -25 c 10
 814 263 l 1
 464 553 l 2
 453 561 441 570 441 589 c 0
 441 610 459 624 477 624 c 0
 491 624 502 616 508 611 c 2
 881 304 l 2
 908 282 907 277 909 263 c 1
 906 255 913 250 880 223 c 2
 507 -84 l 2
 497 -92 489 -97 477 -97 c 0
 459 -97 441 -83 441 -61 c 0
91 -61 m 0
 91 -42 106 -31 114 -25 c 10
 464 263 l 1
 114 553 l 2
 103 561 91 570 91 589 c 0
 91 610 109 624 127 624 c 0
 141 624 152 616 158 611 c 2
 531 304 l 2
 558 282 557 277 559 263 c 1
 556 255 563 250 530 223 c 2
 157 -84 l 2
 147 -92 139 -97 127 -97 c 0
 109 -97 91 -83 91 -61 c 0
EndSplineSet
EndChar
StartChar: lessorequivalent
Encoding: 8818 8818 249
Width: 1000
Flags: W
LayerCount: 2
Fore
SplineSet
151 -72 m 1x58
 154 8 289 57 364 57 c 0x38
 464 57 577 1 639 1 c 0x58
 654 1 771 7 777 57 c 1x98
 849 57 l 1x38
 846 -24 711 -72 636 -72 c 0x58
 538 -72 423 -16 362 -16 c 0x38
 346 -16 229 -22 224 -72 c 1x98
 151 -72 l 1x58
174 400 m 3
 174 424 196 436 210 441 c 2
 782 668 l 2
 790 671 799 676 808 676 c 0
 827 676 842 659 842 640 c 0
 842 614 816 603 806 599 c 2
 292 400 l 1
 326 386 l 1
 806 202 l 2
 816 198 842 185 842 160 c 0
 842 141 829 124 810 124 c 0
 801 124 791 129 782 132 c 2
 210 358 l 2
 196 364 174 375 174 400 c 3
EndSplineSet
EndChar
StartChar: greaterorequivalent
Encoding: 8819 8819 250
Width: 1000
Flags: W
LayerCount: 2
Fore
SplineSet
151 -72 m 1x58
 154 8 289 57 364 57 c 0x38
 464 57 577 1 639 1 c 0x58
 654 1 771 7 777 57 c 1x98
 849 57 l 1x38
 846 -24 711 -72 636 -72 c 0x58
 538 -72 423 -16 362 -16 c 0x38
 346 -16 229 -22 224 -72 c 1x98
 151 -72 l 1x58
174 160 m 0
 174 185 200 198 210 202 c 2
 690 386 l 1
 724 400 l 1
 210 599 l 2
 200 603 174 614 174 640 c 0
 174 659 189 676 208 676 c 0
 217 676 226 671 234 668 c 2
 806 441 l 2
 820 436 842 424 842 400 c 3
 842 375 820 364 806 358 c 2
 234 132 l 2
 225 129 215 124 206 124 c 0
 187 124 174 141 174 160 c 0
EndSplineSet
EndChar
StartChar: lessorgreater
Encoding: 8822 8822 242
Width: 1000
Flags: W
LayerCount: 2
Fore
SplineSet
166 -165 m 0
 166 -140 192 -127 202 -123 c 2
 682 61 l 1
 716 75 l 1
 202 274 l 2
 192 278 166 289 166 315 c 0
 166 334 181 351 200 351 c 0
 209 351 218 346 226 343 c 2
 798 116 l 2
 812 111 834 99 834 75 c 3
 834 50 812 39 798 33 c 2
 226 -193 l 2
 217 -196 207 -201 198 -201 c 0
 179 -201 166 -184 166 -165 c 0
166 525 m 3
 166 549 188 561 202 566 c 2
 774 793 l 2
 782 796 791 801 800 801 c 0
 819 801 834 784 834 765 c 0
 834 739 808 728 798 724 c 2
 284 525 l 1
 318 511 l 1
 798 327 l 2
 808 323 834 310 834 285 c 0
 834 266 821 249 802 249 c 0
 793 249 783 254 774 257 c 2
 202 483 l 2
 188 489 166 500 166 525 c 3
EndSplineSet
EndChar
StartChar: greaterorless
Encoding: 8823 8823 243
Width: 1000
Flags: W
LayerCount: 2
Fore
SplineSet
166 75 m 3
 166 99 188 111 202 116 c 2
 774 343 l 2
 782 346 791 351 800 351 c 0
 819 351 834 334 834 315 c 0
 834 289 808 278 798 274 c 2
 284 75 l 1
 318 61 l 1
 798 -123 l 2
 808 -127 834 -140 834 -165 c 0
 834 -184 821 -201 802 -201 c 0
 793 -201 783 -196 774 -193 c 2
 202 33 l 2
 188 39 166 50 166 75 c 3
166 285 m 0
 166 310 192 323 202 327 c 2
 682 511 l 1
 716 525 l 1
 202 724 l 2
 192 728 166 739 166 765 c 0
 166 784 181 801 200 801 c 0
 209 801 218 796 226 793 c 2
 798 566 l 2
 812 561 834 549 834 525 c 3
 834 500 812 489 798 483 c 2
 226 257 l 2
 217 254 207 249 198 249 c 0
 179 249 166 266 166 285 c 0
EndSplineSet
EndChar
StartChar: subset
Encoding: 8834 8834 216
Width: 1000
Flags: W
LayerCount: 2
Fore
SplineSet
166 250 m 0
 166 441 321 597 512 597 c 2
 790 597 l 2
 831 597 834 569 834 560 c 0
 834 546 826 524 786 524 c 2
 512 524 l 2
 361 524 240 401 240 250 c 0
 240 99 361 -23 512 -23 c 2
 790 -23 l 2
 831 -23 834 -51 834 -60 c 0
 834 -74 826 -96 786 -96 c 2
 512 -96 l 2
 321 -96 166 59 166 250 c 0
EndSplineSet
EndChar
StartChar: superset
Encoding: 8835 8835 217
Width: 1000
Flags: W
LayerCount: 2
Fore
SplineSet
166 -60 m 0
 166 -51 169 -23 210 -23 c 2
 488 -23 l 2
 639 -23 760 99 760 250 c 0
 760 401 639 524 488 524 c 2
 214 524 l 2
 174 524 166 546 166 560 c 0
 166 569 169 597 210 597 c 2
 488 597 l 2
 679 597 834 441 834 250 c 0
 834 59 679 -96 488 -96 c 2
 214 -96 l 2
 174 -96 166 -74 166 -60 c 0
EndSplineSet
EndChar
StartChar: notsubset
Encoding: 8836 8836 220
Width: 1000
Flags: W
LayerCount: 2
Fore
SplineSet
240 250 m 0
 240 144 299 51 388 6 c 1
 592 524 l 1
 512 524 l 2
 361 524 240 401 240 250 c 0
166 250 m 0
 166 441 321 597 512 597 c 2
 620 597 l 1
 644 658 l 2
 649 671 659 704 688 704 c 0
 707 704 724 690 724 668 c 0
 724 658 719 649 716 641 c 2
 700 597 l 1
 790 597 l 2
 831 597 834 569 834 560 c 0
 834 546 826 524 786 524 c 2
 670 524 l 1
 458 -18 l 1
 476 -22 493 -23 512 -23 c 2
 790 -23 l 2
 831 -23 834 -51 834 -60 c 0
 834 -74 826 -96 786 -96 c 2
 512 -96 l 2
 484 -96 458 -92 432 -86 c 1
 402 -159 l 2
 395 -177 387 -208 358 -208 c 0
 341 -208 322 -194 322 -172 c 0
 322 -161 327 -151 330 -142 c 2
 362 -62 l 1
 246 -6 166 113 166 250 c 0
EndSplineSet
EndChar
StartChar: notsuperset
Encoding: 8837 8837 221
Width: 1000
Flags: W
LayerCount: 2
Fore
SplineSet
404 -23 m 1
 488 -23 l 2
 639 -23 760 99 760 250 c 0
 760 358 699 451 608 496 c 1
 404 -23 l 1
166 -60 m 0
 166 -51 169 -23 210 -23 c 2
 326 -23 l 1
 538 519 l 1
 522 522 505 524 488 524 c 2
 214 524 l 2
 174 524 166 546 166 560 c 0
 166 569 169 597 210 597 c 2
 488 597 l 2
 515 597 541 594 566 588 c 1
 592 658 l 2
 597 671 607 704 636 704 c 0
 655 704 672 690 672 668 c 0
 672 658 667 649 664 641 c 2
 634 564 l 1
 752 508 834 389 834 250 c 0
 834 59 679 -96 488 -96 c 2
 376 -96 l 1
 350 -159 l 2
 343 -177 335 -208 306 -208 c 0
 289 -208 270 -194 270 -172 c 0
 270 -161 275 -151 278 -142 c 2
 296 -96 l 1
 214 -96 l 2
 174 -96 166 -74 166 -60 c 0
EndSplineSet
EndChar
StartChar: subsetorequal
Encoding: 8838 8838 214
Width: 1000
Flags: W
LayerCount: 2
Fore
SplineSet
164 335 m 0
 164 526 320 597 511 597 c 2
 788 597 l 2
 829 597 833 569 833 560 c 0
 833 546 825 524 785 524 c 2
 511 524 l 2
 360 524 238 486 238 335 c 0
 238 184 360 147 511 147 c 2
 788 147 l 2
 829 147 833 119 833 110 c 0
 833 96 825 74 785 74 c 2
 511 74 l 2
 320 74 164 144 164 335 c 0
134 -65 m 0
 134 -47 149 -32 166 -29 c 0
 174 -28 183 -28 192 -28 c 2
 820 -28 l 2
 861 -28 866 -56 866 -65 c 0
 866 -79 858 -101 818 -101 c 2
 182 -101 l 2
 141 -101 134 -79 134 -65 c 0
EndSplineSet
EndChar
StartChar: supersetorequal
Encoding: 8839 8839 215
Width: 1000
Flags: W
LayerCount: 2
Fore
SplineSet
166 110 m 0
 166 119 170 147 211 147 c 2
 488 147 l 2
 639 147 761 184 761 335 c 0
 761 486 639 524 488 524 c 2
 214 524 l 2
 174 524 166 546 166 560 c 0
 166 569 170 597 211 597 c 2
 488 597 l 2
 679 597 835 526 835 335 c 0
 835 144 679 74 488 74 c 2
 214 74 l 2
 174 74 166 96 166 110 c 0
134 -65 m 0
 134 -47 149 -32 166 -29 c 0
 174 -28 183 -28 192 -28 c 2
 820 -28 l 2
 861 -28 866 -56 866 -65 c 0
 866 -79 858 -101 818 -101 c 2
 182 -101 l 2
 141 -101 134 -79 134 -65 c 0
EndSplineSet
EndChar
StartChar: subsetnotequal
Encoding: 8842 8842 222
Width: 1000
Flags: W
LayerCount: 2
Fore
SplineSet
134 -65 m 0
 134 -47 149 -32 166 -29 c 0
 174 -28 183 -28 192 -28 c 2
 475 -28 l 1
 516 74 l 1
 511 74 l 2
 320 74 164 144 164 335 c 0
 164 526 320 597 511 597 c 2
 788 597 l 2
 829 597 833 569 833 560 c 0
 833 546 825 524 785 524 c 2
 511 524 l 2
 360 524 238 486 238 335 c 0
 238 184 360 147 511 147 c 2
 788 147 l 2
 829 147 833 119 833 110 c 0
 833 96 825 74 785 74 c 2
 594 74 l 1
 554 -28 l 1
 820 -28 l 2
 861 -28 866 -56 866 -65 c 0
 866 -79 858 -101 818 -101 c 2
 525 -101 l 1
 505 -151 l 2
 498 -169 490 -200 461 -200 c 0
 444 -200 425 -186 425 -164 c 0
 425 -153 430 -143 433 -134 c 2
 446 -101 l 1
 182 -101 l 2
 141 -101 134 -79 134 -65 c 0
EndSplineSet
EndChar
StartChar: supersetnotequal
Encoding: 8843 8843 223
Width: 1000
Flags: W
LayerCount: 2
Fore
SplineSet
134 -65 m 0
 134 -47 149 -32 166 -29 c 0
 174 -28 183 -28 192 -28 c 2
 475 -28 l 1
 516 75 l 1
 507 75 497 74 488 74 c 2
 214 74 l 2
 174 74 166 96 166 110 c 0
 166 119 170 147 211 147 c 2
 488 147 l 2
 639 147 761 184 761 335 c 0
 761 486 639 524 488 524 c 2
 214 524 l 2
 174 524 166 546 166 560 c 0
 166 569 170 597 211 597 c 2
 488 597 l 2
 679 597 835 526 835 335 c 0
 835 182 736 107 598 83 c 1
 554 -28 l 1
 820 -28 l 2
 861 -28 866 -56 866 -65 c 0
 866 -79 858 -101 818 -101 c 2
 525 -101 l 1
 505 -151 l 2
 498 -169 490 -200 461 -200 c 0
 444 -200 425 -186 425 -164 c 0
 425 -153 430 -143 433 -134 c 2
 446 -101 l 1
 182 -101 l 2
 141 -101 134 -79 134 -65 c 0
EndSplineSet
EndChar
StartChar: circleplus
Encoding: 8853 8853 253
Width: 1000
Flags: W
LayerCount: 2
Fore
SplineSet
153 250 m 0
 153 441 309 597 500 597 c 0
 691 597 847 441 847 250 c 0
 847 59 691 -96 500 -96 c 0
 309 -96 153 59 153 250 c 0
229 214 m 1
 245 93 341 -3 462 -20 c 1
 462 214 l 1
 229 214 l 1
229 286 m 1
 462 286 l 1
 462 521 l 1
 341 504 245 408 229 286 c 1
535 -21 m 1
 658 -5 755 92 771 214 c 1
 535 214 l 1
 535 -21 l 1
535 286 m 1
 771 286 l 1
 755 409 658 506 535 522 c 1
 535 286 l 1
EndSplineSet
EndChar
StartChar: circleminus
Encoding: 8854 8854 254
Width: 1000
Flags: W
LayerCount: 2
Fore
SplineSet
153 250 m 0
 153 441 309 597 500 597 c 0
 691 597 847 441 847 250 c 0
 847 59 691 -96 500 -96 c 0
 309 -96 153 59 153 250 c 0
229 214 m 1
 247 80 361 -23 500 -23 c 0
 639 -23 753 80 771 214 c 1
 229 214 l 1
229 286 m 1
 771 286 l 1
 753 420 639 524 500 524 c 0
 361 524 247 420 229 286 c 1
EndSplineSet
EndChar
StartChar: circlemultiply
Encoding: 8855 8855 255
Width: 1000
Flags: W
LayerCount: 2
Fore
SplineSet
550 250 m 1
 717 84 l 1
 752 130 773 187 773 250 c 0
 773 313 751 371 716 417 c 1
 550 250 l 1
333 34 m 1
 379 -2 437 -23 500 -23 c 0
 562 -23 619 -3 665 32 c 1
 498 199 l 1
 333 34 l 1
333 467 m 1
 499 301 l 1
 665 468 l 1
 619 503 562 524 500 524 c 0
 437 524 379 503 333 467 c 1
153 250 m 0
 153 441 309 597 500 597 c 0
 691 597 847 441 847 250 c 0
 847 59 691 -96 500 -96 c 0
 309 -96 153 59 153 250 c 0
227 250 m 0
 227 188 247 131 282 85 c 1
 447 250 l 1
 282 415 l 1
 247 369 227 312 227 250 c 0
EndSplineSet
EndChar
StartChar: circledivide
Encoding: 8856 8856 256
Width: 1000
Flags: W
LayerCount: 2
Fore
SplineSet
153 250 m 0
 153 441 309 597 500 597 c 0
 691 597 847 441 847 250 c 0
 847 59 691 -96 500 -96 c 0
 309 -96 153 59 153 250 c 0
227 250 m 0
 227 188 247 131 282 85 c 1
 665 468 l 1
 619 503 562 524 500 524 c 0
 349 524 227 401 227 250 c 0
333 34 m 1
 379 -2 437 -23 500 -23 c 0
 651 -23 773 99 773 250 c 0
 773 313 751 371 716 417 c 1
 333 34 l 1
EndSplineSet
EndChar
StartChar: squareplus
Encoding: 8862 8862 265
Width: 1000
Flags: W
LayerCount: 2
Fore
SplineSet
134 -80 m 2
 134 580 l 2
 134 602 148 616 170 616 c 2
 828 616 l 2
 849 616 866 601 866 580 c 2
 866 -80 l 2
 866 -102 851 -116 830 -116 c 2
 172 -116 l 2
 151 -116 134 -101 134 -80 c 2
208 214 m 1
 208 -44 l 1
 464 -44 l 1
 464 214 l 1
 208 214 l 1
536 -44 m 1
 792 -44 l 1
 792 214 l 1
 536 214 l 1
 536 -44 l 1
792 286 m 1
 792 544 l 1
 536 544 l 1
 536 286 l 1
 792 286 l 1
464 544 m 1
 208 544 l 1
 208 286 l 1
 464 286 l 1
 464 544 l 1
EndSplineSet
EndChar
StartChar: squaremultiply
Encoding: 8864 8864 266
Width: 1000
Flags: W
LayerCount: 2
Fore
SplineSet
134 -80 m 2
 134 580 l 2
 134 602 148 616 170 616 c 2
 828 616 l 2
 849 616 866 601 866 580 c 2
 866 -80 l 2
 866 -102 851 -116 830 -116 c 2
 172 -116 l 2
 151 -116 134 -101 134 -80 c 2
256 -44 m 1
 742 -44 l 1
 500 199 l 1
 256 -44 l 1
792 9 m 1
 792 492 l 1
 552 250 l 1
 792 9 l 1
744 544 m 1
 258 544 l 1
 500 301 l 1
 744 544 l 1
208 491 m 1
 208 8 l 1
 448 250 l 1
 208 491 l 1
EndSplineSet
EndChar
StartChar: righttriangle
Encoding: 8895 8895 246
Width: 1000
Flags: W
LayerCount: 2
Fore
SplineSet
184 -48 m 0
 184 -30 201 -14 207 -8 c 2
 747 567 l 2
 755 576 763 584 780 584 c 0
 808 584 816 556 816 539 c 2
 816 -48 l 2
 816 -76 789 -84 771 -84 c 2
 228 -84 l 2
 205 -84 184 -74 184 -48 c 0
302 -12 m 1
 744 -12 l 1
 744 459 l 1
 302 -12 l 1
EndSplineSet
EndChar
StartChar: lessequalgreater
Encoding: 8922 8922 260
Width: 1000
Flags: W
LayerCount: 2
Fore
SplineSet
167 -160 m 0
 167 -135 193 -126 203 -123 c 2
 717 0 l 1
 203 124 l 2
 193 127 167 135 167 161 c 0
 167 180 182 197 201 197 c 0
 210 197 219 195 227 193 c 2
 799 41 l 2
 813 36 835 24 835 0 c 3
 835 -25 814 -38 799 -42 c 2
 227 -193 l 2
 218 -196 208 -196 199 -196 c 0
 180 -196 167 -179 167 -160 c 0
167 525 m 3
 167 549 189 562 203 566 c 2
 775 718 l 2
 783 721 792 721 801 721 c 0
 820 721 835 704 835 685 c 0
 835 659 809 653 799 649 c 2
 285 525 l 1
 799 402 l 2
 809 399 835 390 835 365 c 0
 835 346 822 329 803 329 c 0
 794 329 784 330 775 332 c 2
 203 483 l 2
 189 489 167 500 167 525 c 3
134 265 m 0
 134 279 139 287 146 292 c 0
 159 302 177 300 177 301 c 1
 187 301 l 1
 822 301 l 2
 832 301 843 299 852 294 c 0
 860 289 866 280 866 265 c 0
 866 250 859 241 851 236 c 0
 838 228 821 230 821 229 c 1
 178 229 l 2
 167 229 154 232 145 239 c 0
 138 244 134 252 134 265 c 0
EndSplineSet
EndChar
StartChar: greaterequalless
Encoding: 8923 8923 261
Width: 1000
Flags: W
LayerCount: 2
Fore
SplineSet
167 0 m 3
 167 24 189 36 203 41 c 2
 775 193 l 2
 783 195 792 196 801 196 c 0
 820 196 835 179 835 160 c 0
 835 134 809 127 799 124 c 2
 285 0 l 1
 799 -123 l 18
 809 -126 835 -136 835 -161 c 0
 835 -180 822 -197 803 -197 c 0
 794 -197 784 -196 775 -193 c 2
 203 -42 l 2
 188 -38 167 -25 167 0 c 3
167 364 m 0
 167 389 193 399 203 402 c 2
 717 525 l 1
 203 649 l 2
 193 653 167 660 167 686 c 0
 167 705 182 722 201 722 c 0
 210 722 219 721 227 718 c 2
 799 566 l 2
 813 562 835 549 835 525 c 3
 835 500 813 489 799 483 c 2
 227 332 l 2
 218 330 208 328 199 328 c 0
 180 328 167 345 167 364 c 0
134 265 m 0
 134 279 139 287 146 292 c 0
 159 302 177 300 177 301 c 1
 187 301 l 1
 822 301 l 2
 832 301 843 299 852 294 c 0
 860 289 866 280 866 265 c 0
 866 250 859 241 851 236 c 0
 838 228 821 230 821 229 c 1
 178 229 l 2
 167 229 154 232 145 239 c 0
 138 244 134 252 134 265 c 0
EndSplineSet
EndChar
StartChar: hvhorizform
Encoding: 9473 9473 135
Width: 1000
Flags: W
LayerCount: 2
Fore
SplineSet
0 210 m 1
 0 390 l 1
 1000 390 l 1
 1000 210 l 1
 0 210 l 1
EndSplineSet
EndChar
StartChar: ltdashtripvertform
Encoding: 9478 9478 140
Width: 1000
Flags: W
LayerCount: 2
Fore
SplineSet
470 74 m 1
 530 74 l 1
 530 -140 l 1
 470 -140 l 1
 470 74 l 1
470 193 m 1
 470 407 l 1
 530 407 l 1
 530 193 l 1
 470 193 l 1
470 526 m 1
 470 740 l 1
 530 740 l 1
 530 526 l 1
 470 526 l 1
EndSplineSet
EndChar
StartChar: hvdashtripvertform
Encoding: 9479 9479 141
Width: 1000
Flags: W
LayerCount: 2
Fore
SplineSet
410 74 m 1
 590 74 l 1
 590 -140 l 1
 410 -140 l 1
 410 74 l 1
410 193 m 1
 410 407 l 1
 590 407 l 1
 590 193 l 1
 410 193 l 1
410 526 m 1
 410 740 l 1
 590 740 l 1
 590 526 l 1
 410 526 l 1
EndSplineSet
EndChar
StartChar: hvdashquadhorizform
Encoding: 9481 9481 143
Width: 1000
Flags: W
LayerCount: 2
Fore
SplineSet
41 210 m 1
 41 390 l 1
 208 390 l 1
 208 210 l 1
 41 210 l 1
292 210 m 1
 292 390 l 1
 458 390 l 1
 458 210 l 1
 292 210 l 1
541 210 m 1
 541 390 l 1
 708 390 l 1
 708 210 l 1
 541 210 l 1
791 210 m 1
 791 390 l 1
 958 390 l 1
 958 210 l 1
 791 210 l 1
EndSplineSet
EndChar
StartChar: dnltrthvform
Encoding: 9485 9485 147
Width: 1000
Flags: W
LayerCount: 2
Fore
SplineSet
470 -200 m 1
 470 390 l 1
 1000 390 l 1
 1000 210 l 1
 530 210 l 1
 530 -200 l 1
 470 -200 l 1
EndSplineSet
EndChar
StartChar: hvdnrtform
Encoding: 9487 9487 149
Width: 1000
Flags: W
LayerCount: 2
Fore
SplineSet
410 -200 m 1
 410 390 l 1
 1000 390 l 1
 1000 210 l 1
 590 210 l 1
 590 -200 l 1
 410 -200 l 1
EndSplineSet
EndChar
StartChar: hvdnleftform
Encoding: 9491 9491 153
Width: 1000
Flags: W
LayerCount: 2
Fore
SplineSet
0 210 m 1
 0 390 l 1
 590 390 l 1
 590 -200 l 1
 410 -200 l 1
 410 210 l 1
 0 210 l 1
EndSplineSet
EndChar
StartChar: upltlefthvform
Encoding: 9497 9497 159
Width: 1000
Flags: W
LayerCount: 2
Fore
SplineSet
0 210 m 1
 0 390 l 1
 470 390 l 1
 470 800 l 1
 530 800 l 1
 530 210 l 1
 0 210 l 1
EndSplineSet
EndChar
StartChar: hvupleftform
Encoding: 9499 9499 161
Width: 1000
Flags: W
LayerCount: 2
Fore
SplineSet
0 210 m 1
 0 390 l 1
 410 390 l 1
 410 800 l 1
 590 800 l 1
 590 210 l 1
 0 210 l 1
EndSplineSet
EndChar
StartChar: ltvertrightform
Encoding: 9500 9500 162
Width: 1000
Flags: W
LayerCount: 2
Fore
SplineSet
470 -200 m 1
 470 800 l 1
 530 800 l 1
 530 330 l 1
 1000 330 l 1
 1000 270 l 1
 530 270 l 1
 530 -200 l 1
 470 -200 l 1
EndSplineSet
EndChar
StartChar: dnhvrtupltform
Encoding: 9503 9503 165
Width: 1000
Flags: W
LayerCount: 2
Fore
SplineSet
410 -200 m 1
 410 330 l 1
 470 330 l 1
 470 800 l 1
 530 800 l 1
 530 330 l 1
 1000 330 l 1
 1000 270 l 1
 590 270 l 1
 590 -200 l 1
 410 -200 l 1
EndSplineSet
EndChar
StartChar: verthvrtltform
Encoding: 9504 9504 166
Width: 1000
Flags: W
LayerCount: 2
Fore
SplineSet
410 -200 m 1
 410 800 l 1
 590 800 l 1
 590 330 l 1
 1000 330 l 1
 1000 270 l 1
 590 270 l 1
 590 -200 l 1
 410 -200 l 1
EndSplineSet
EndChar
StartChar: dnltrtuphvform
Encoding: 9505 9505 167
Width: 1000
Flags: W
LayerCount: 2
Fore
SplineSet
410 210 m 1
 410 800 l 1
 590 800 l 1
 590 390 l 1
 1000 390 l 1
 1000 210 l 1
 530 210 l 1
 530 -200 l 1
 470 -200 l 1
 470 210 l 1
 410 210 l 1
EndSplineSet
EndChar
StartChar: ltvertleftform
Encoding: 9508 9508 170
Width: 1000
Flags: W
LayerCount: 2
Fore
SplineSet
0 270 m 1
 0 330 l 1
 470 330 l 1
 470 800 l 1
 530 800 l 1
 530 -200 l 1
 470 -200 l 1
 470 270 l 1
 0 270 l 1
EndSplineSet
EndChar
StartChar: dnhvleftupltform
Encoding: 9511 9511 173
Width: 1000
Flags: W
LayerCount: 2
Fore
SplineSet
0 270 m 1
 0 330 l 1
 470 330 l 1
 470 800 l 1
 530 800 l 1
 530 330 l 1
 590 330 l 1
 590 -200 l 1
 410 -200 l 1
 410 270 l 1
 0 270 l 1
EndSplineSet
EndChar
StartChar: verthvleftltform
Encoding: 9512 9512 174
Width: 1000
Flags: W
LayerCount: 2
Fore
SplineSet
0 270 m 1
 0 330 l 1
 410 330 l 1
 410 800 l 1
 590 800 l 1
 590 -200 l 1
 410 -200 l 1
 410 270 l 1
 0 270 l 1
EndSplineSet
EndChar
StartChar: upltleftdnhvform
Encoding: 9514 9514 176
Width: 1000
Flags: W
LayerCount: 2
Fore
SplineSet
0 210 m 1
 0 390 l 1
 470 390 l 1
 470 800 l 1
 530 800 l 1
 530 390 l 1
 590 390 l 1
 590 -200 l 1
 410 -200 l 1
 410 210 l 1
 0 210 l 1
EndSplineSet
EndChar
StartChar: hvdnhorizform
Encoding: 9523 9523 185
Width: 1000
Flags: W
LayerCount: 2
Fore
SplineSet
0 210 m 1
 0 390 l 1
 1000 390 l 1
 1000 210 l 1
 590 210 l 1
 590 -200 l 1
 410 -200 l 1
 410 210 l 1
 0 210 l 1
EndSplineSet
EndChar
StartChar: uplthorizhvform
Encoding: 9527 9527 189
Width: 1000
Flags: W
LayerCount: 2
Fore
SplineSet
0 210 m 1
 0 390 l 1
 470 390 l 1
 470 800 l 1
 530 800 l 1
 530 390 l 1
 1000 390 l 1
 1000 210 l 1
 0 210 l 1
EndSplineSet
EndChar
StartChar: rthvleftvertltform
Encoding: 9534 9534 196
Width: 1000
Flags: W
LayerCount: 2
Fore
SplineSet
0 270 m 1
 0 330 l 1
 470 330 l 1
 470 800 l 1
 530 800 l 1
 530 390 l 1
 1000 390 l 1
 1000 210 l 1
 530 210 l 1
 530 -200 l 1
 470 -200 l 1
 470 270 l 1
 0 270 l 1
EndSplineSet
EndChar
StartChar: vertlthorizhvform
Encoding: 9535 9535 197
Width: 1000
Flags: W
LayerCount: 2
Fore
SplineSet
0 210 m 1
 0 390 l 1
 470 390 l 1
 470 800 l 1
 530 800 l 1
 530 390 l 1
 1000 390 l 1
 1000 210 l 1
 530 210 l 1
 530 -200 l 1
 470 -200 l 1
 470 210 l 1
 0 210 l 1
EndSplineSet
EndChar
StartChar: leftdnhvrtupltform
Encoding: 9541 9541 203
Width: 1000
Flags: W
LayerCount: 2
Fore
SplineSet
0 210 m 1
 0 390 l 1
 470 390 l 1
 470 800 l 1
 530 800 l 1
 530 390 l 1
 590 390 l 1
 590 330 l 1
 1000 330 l 1
 1000 270 l 1
 590 270 l 1
 590 -200 l 1
 410 -200 l 1
 410 210 l 1
 0 210 l 1
EndSplineSet
EndChar
StartChar: dnltuphorizhvform
Encoding: 9543 9543 205
Width: 1000
Flags: W
LayerCount: 2
Fore
SplineSet
0 210 m 1
 0 390 l 1
 410 390 l 1
 410 800 l 1
 590 800 l 1
 590 390 l 1
 1000 390 l 1
 1000 210 l 1
 530 210 l 1
 530 -200 l 1
 470 -200 l 1
 470 210 l 1
 0 210 l 1
EndSplineSet
EndChar
StartChar: leftltrtverthvform
Encoding: 9546 9546 208
Width: 1000
Flags: W
LayerCount: 2
Fore
SplineSet
0 270 m 1
 0 330 l 1
 410 330 l 1
 410 800 l 1
 590 800 l 1
 590 390 l 1
 1000 390 l 1
 1000 210 l 1
 590 210 l 1
 590 -200 l 1
 410 -200 l 1
 410 270 l 1
 0 270 l 1
EndSplineSet
EndChar
StartChar: zero.slash
Encoding: 63032 63032 121
Width: 1000
Flags: W
LayerCount: 2
Fore
SplineSet
212 344 m 0
 212 356 212 368 212 380 c 0
 214 509 230 664 382 706 c 0
 416 713 455 717 500 717 c 0
 586 717 675 700 717 654 c 0
 788 576 788 431 788 362 c 2
 788 352 l 2
 788 213 786 32 616 -12 c 0
 582 -18 543 -22 498 -22 c 0
 222 -22 212 180 212 344 c 0
358 352 m 0
 358 310 357 275 359 244 c 1
 581 622 l 1
 559 636 530 644 500 644 c 0
 359 644 358 516 358 396 c 0
 358 381 358 366 358 352 c 0
402 87 m 1
 414 75 428 67 446 60 c 0
 461 55 479 50 500 50 c 0
 509 50 548 51 582 76 c 0
 644 120 639 200 642 357 c 0
 642 368 644 380 644 393 c 0
 644 425 643 460 640 492 c 1
 402 87 l 1
EndSplineSet
EndChar
